<?xml version="1.0" encoding="UTF-8" standalone="no"?>
<!-- Created with Inkscape (http://www.inkscape.org/) -->

<svg
   xmlns:dc="http://purl.org/dc/elements/1.1/"
   xmlns:cc="http://creativecommons.org/ns#"
   xmlns:rdf="http://www.w3.org/1999/02/22-rdf-syntax-ns#"
   xmlns:svg="http://www.w3.org/2000/svg"
   xmlns="http://www.w3.org/2000/svg"
   xmlns:sodipodi="http://sodipodi.sourceforge.net/DTD/sodipodi-0.dtd"
   xmlns:inkscape="http://www.inkscape.org/namespaces/inkscape"
   width="1052.3622"
   height="744.09448"
   id="svg2"
   version="1.1"
   inkscape:version="0.48.5 r10040"
   sodipodi:docname="AdditionTableBoardPart2_LaserCutting.svg">
  <defs
     id="defs4" />
  <sodipodi:namedview
     id="base"
     pagecolor="#ffffff"
     bordercolor="#666666"
     borderopacity="1.0"
     inkscape:pageopacity="0.0"
     inkscape:pageshadow="2"
     inkscape:zoom="0.9899495"
     inkscape:cx="525.02961"
     inkscape:cy="625.65431"
     inkscape:document-units="mm"
     inkscape:current-layer="layer1"
     showgrid="true"
     inkscape:window-width="1304"
     inkscape:window-height="746"
     inkscape:window-x="54"
     inkscape:window-y="-8"
     inkscape:window-maximized="1"
     units="mm"
     inkscape:snap-global="true"
     inkscape:snap-grids="true"
     inkscape:snap-bbox="true">
    <inkscape:grid
       type="xygrid"
       id="grid3844"
       empspacing="5"
       visible="true"
       enabled="true"
       snapvisiblegridlinesonly="true"
       units="mm"
       spacingx="1mm"
       spacingy="1mm"
       dotted="true" />
  </sodipodi:namedview>
  <metadata
     id="metadata7">
    <rdf:RDF>
      <cc:Work
         rdf:about="">
        <dc:format>image/svg+xml</dc:format>
        <dc:type
           rdf:resource="http://purl.org/dc/dcmitype/StillImage" />
        <dc:title />
      </cc:Work>
    </rdf:RDF>
  </metadata>
  <g
     inkscape:label="Layer 1"
     inkscape:groupmode="layer"
     id="layer1"
     transform="translate(0,-308.26743)">
    <flowRoot
       xml:space="preserve"
       id="flowRoot4781"
       style="font-size:10px;font-style:normal;font-weight:normal;line-height:125%;letter-spacing:0px;word-spacing:0px;fill:#000000;fill-opacity:1;stroke:none;font-family:Sans;stroke-width:2.77086614;stroke-miterlimit:4;stroke-dasharray:none"><flowRegion
         id="flowRegion4783"><rect
           id="rect4785"
           width="88.571426"
           height="22.857143"
           x="87.14286"
           y="752.10352"
           style="stroke-width:2.77086614;stroke-miterlimit:4;stroke-dasharray:none" /></flowRegion><flowPara
         id="flowPara4787" /></flowRoot>    <path
       style="fill:none;stroke:#000000;stroke-width:2.73502088;stroke-linecap:butt;stroke-linejoin:miter;stroke-miterlimit:4;stroke-opacity:1;stroke-dasharray:none"
       d="m 158.94882,343.7005 708.66142,0 0,690.4449 -708.66142,0 z"
       id="path3066"
       inkscape:connector-curvature="0" />
    <path
       style="fill:none;stroke:#000000;stroke-width:2.77086614;stroke-linecap:butt;stroke-linejoin:miter;stroke-opacity:1;stroke-miterlimit:4;stroke-dasharray:none"
       d="m 158.94882,396.3501 708.66142,0 0,0"
       id="path3068"
       inkscape:connector-curvature="0" />
    <path
       style="fill:none;stroke:#000000;stroke-width:2.77086614;stroke-linecap:butt;stroke-linejoin:miter;stroke-opacity:1;stroke-miterlimit:4;stroke-dasharray:none"
       d="m 158.94882,467.21625 708.66142,0"
       id="path3070"
       inkscape:connector-curvature="0" />
    <path
       style="fill:none;stroke:#000000;stroke-width:2.77086614;stroke-linecap:butt;stroke-linejoin:miter;stroke-opacity:1;stroke-miterlimit:4;stroke-dasharray:none"
       d="m 867.61024,538.08239 -708.66142,0"
       id="path3072"
       inkscape:connector-curvature="0" />
    <path
       style="fill:none;stroke:#000000;stroke-width:2.77086614;stroke-linecap:butt;stroke-linejoin:miter;stroke-opacity:1;stroke-miterlimit:4;stroke-dasharray:none"
       d="m 158.94883,608.94853 708.66141,0"
       id="path3074"
       inkscape:connector-curvature="0" />
    <path
       style="fill:none;stroke:#000000;stroke-width:2.77086614;stroke-linecap:butt;stroke-linejoin:miter;stroke-opacity:1;stroke-miterlimit:4;stroke-dasharray:none"
       d="m 867.61024,679.81467 -708.66142,0"
       id="path3076"
       inkscape:connector-curvature="0" />
    <path
       style="fill:none;stroke:#000000;stroke-width:2.77086614;stroke-linecap:butt;stroke-linejoin:miter;stroke-opacity:1;stroke-miterlimit:4;stroke-dasharray:none"
       d="m 158.94882,750.68081 708.66142,0"
       id="path3078"
       inkscape:connector-curvature="0" />
    <path
       style="fill:none;stroke:#000000;stroke-width:2.77086614;stroke-linecap:butt;stroke-linejoin:miter;stroke-opacity:1;stroke-miterlimit:4;stroke-dasharray:none"
       d="m 867.61024,821.54696 -708.66142,0"
       id="path3080"
       inkscape:connector-curvature="0" />
    <path
       style="fill:none;stroke:#000000;stroke-width:2.77086614;stroke-linecap:butt;stroke-linejoin:miter;stroke-opacity:1;stroke-miterlimit:4;stroke-dasharray:none"
       d="m 158.94882,892.4131 708.66142,0"
       id="path3082"
       inkscape:connector-curvature="0" />
    <path
       style="fill:none;stroke:#000000;stroke-width:2.77086614;stroke-linecap:butt;stroke-linejoin:miter;stroke-opacity:1;stroke-miterlimit:4;stroke-dasharray:none"
       d="m 867.61024,963.27924 -708.66142,0"
       id="path3084"
       inkscape:connector-curvature="0" />
    <path
       style="fill:none;stroke:#000000;stroke-width:2.77086614;stroke-linecap:butt;stroke-linejoin:miter;stroke-opacity:1;stroke-miterlimit:4;stroke-dasharray:none"
       d="m 229.81496,396.3501 0,637.7953 0,0"
       id="path3086"
       inkscape:connector-curvature="0"
       sodipodi:nodetypes="ccc" />
    <path
       style="fill:none;stroke:#000000;stroke-width:2.77086614;stroke-linecap:butt;stroke-linejoin:miter;stroke-opacity:1;stroke-miterlimit:4;stroke-dasharray:none"
       d="m 300.68111,396.3501 0,637.7953"
       id="path3088"
       inkscape:connector-curvature="0"
       sodipodi:nodetypes="cc" />
    <path
       style="fill:none;stroke:#000000;stroke-width:2.77086614;stroke-linecap:butt;stroke-linejoin:miter;stroke-opacity:1;stroke-miterlimit:4;stroke-dasharray:none"
       d="m 371.54725,396.3501 0,637.7953"
       id="path3090"
       inkscape:connector-curvature="0"
       sodipodi:nodetypes="cc" />
    <path
       style="fill:none;stroke:#000000;stroke-width:2.77086614;stroke-linecap:butt;stroke-linejoin:miter;stroke-opacity:1;stroke-miterlimit:4;stroke-dasharray:none"
       d="m 442.41339,396.3501 0,637.7953 0,0"
       id="path3092"
       inkscape:connector-curvature="0" />
    <path
       style="fill:none;stroke:#000000;stroke-width:2.77086614;stroke-linecap:butt;stroke-linejoin:miter;stroke-opacity:1;stroke-miterlimit:4;stroke-dasharray:none"
       d="m 513.27953,396.3501 0,637.7953 0,0"
       id="path3094"
       inkscape:connector-curvature="0" />
    <path
       style="fill:none;stroke:#000000;stroke-width:2.77086614;stroke-linecap:butt;stroke-linejoin:miter;stroke-opacity:1;stroke-miterlimit:4;stroke-dasharray:none"
       d="m 584.14568,396.3501 0,637.7953"
       id="path3096"
       inkscape:connector-curvature="0" />
    <path
       style="fill:none;stroke:#000000;stroke-width:2.77086614;stroke-linecap:butt;stroke-linejoin:miter;stroke-opacity:1;stroke-miterlimit:4;stroke-dasharray:none"
       d="m 655.01182,396.3501 0,637.7953"
       id="path3098"
       inkscape:connector-curvature="0" />
    <path
       style="fill:none;stroke:#000000;stroke-width:2.77086614;stroke-linecap:butt;stroke-linejoin:miter;stroke-opacity:1;stroke-miterlimit:4;stroke-dasharray:none"
       d="m 725.87796,396.3501 0,637.7953"
       id="path3100"
       inkscape:connector-curvature="0" />
    <path
       style="fill:none;stroke:#000000;stroke-width:2.77086614;stroke-linecap:butt;stroke-linejoin:miter;stroke-opacity:1;stroke-miterlimit:4;stroke-dasharray:none"
       d="m 796.7441,396.3501 0,637.7953"
       id="path3102"
       inkscape:connector-curvature="0" />
    <g
       style="font-size:40px;font-style:normal;font-variant:normal;font-weight:bold;font-stretch:normal;line-height:125%;letter-spacing:0px;word-spacing:0px;fill:#00b400;fill-opacity:1;fill-rule:nonzero;stroke:#00b400;stroke-opacity:1;font-family:Arial;-inkscape-font-specification:Arial Bold"
       id="text3971"
       transform="translate(0,10)">
      <path
         d="m 190.3582,375.13864 -5.48828,0 0,-20.68359 c -2.00522,1.87502 -4.3685,3.26173 -7.08984,4.16015 l 0,-4.98046 c 1.43228,-0.46873 2.98827,-1.3574 4.66796,-2.66602 1.67968,-1.30857 2.83202,-2.83526 3.45704,-4.58008 l 4.45312,0 z"
         id="path3073"
         inkscape:connector-curvature="0" />
      <path
         d="m 212.62383,375.13864 -5.48829,0 0,-20.68359 c -2.00521,1.87502 -4.36849,3.26173 -7.08984,4.16015 l 0,-4.98046 c 1.43229,-0.46873 2.98828,-1.3574 4.66797,-2.66602 1.67968,-1.30857 2.83202,-2.83526 3.45703,-4.58008 l 4.45313,0 z"
         id="path3075"
         inkscape:connector-curvature="0" />
    </g>
    <g
       style="font-size:40px;font-style:normal;font-variant:normal;font-weight:bold;font-stretch:normal;line-height:125%;letter-spacing:0px;word-spacing:0px;fill:#00b400;fill-opacity:1;fill-rule:nonzero;stroke:#00b400;stroke-opacity:1;font-family:Arial;-inkscape-font-specification:Arial Bold"
       id="text3971-3"
       transform="translate(0,10)">
      <path
         d="m 258.97495,375.13864 -5.48829,0 0,-20.68359 c -2.00521,1.87502 -4.36849,3.26173 -7.08984,4.16015 l 0,-4.98046 c 1.43229,-0.46873 2.98828,-1.3574 4.66797,-2.66602 1.67968,-1.30857 2.83202,-2.83526 3.45703,-4.58008 l 4.45313,0 z"
         id="path3067"
         inkscape:connector-curvature="0" />
      <path
         d="m 285.73276,370.04099 0,5.09765 -19.23828,0 c 0.20833,-1.92708 0.83333,-3.75325 1.875,-5.47851 1.04166,-1.72526 3.09895,-4.01367 6.17187,-6.86524 2.47395,-2.30467 3.99087,-3.86717 4.55078,-4.6875 0.7552,-1.13279 1.1328,-2.25258 1.13282,-3.35937 -2e-5,-1.22394 -0.3288,-2.16469 -0.98633,-2.82227 -0.65757,-0.65753 -1.56577,-0.9863 -2.72461,-0.98633 -1.14585,3e-5 -2.0573,0.34508 -2.73438,1.03516 -0.67709,0.69013 -1.06771,1.83596 -1.17187,3.4375 l -5.46875,-0.54688 c 0.32552,-3.02081 1.34765,-5.18877 3.0664,-6.5039 1.71875,-1.31508 3.86718,-1.97263 6.44532,-1.97266 2.8255,3e-5 5.04555,0.76175 6.66015,2.28516 1.61457,1.52346 2.42186,3.41799 2.42188,5.68359 -2e-5,1.28908 -0.23114,2.5163 -0.69336,3.68164 -0.46226,1.16538 -1.19468,2.38608 -2.19727,3.66211 -0.66408,0.84637 -1.86199,2.06381 -3.59375,3.65235 -1.73178,1.58854 -2.82878,2.64323 -3.29101,3.16406 -0.46225,0.52084 -0.8366,1.02865 -1.12305,1.52344 z"
         id="path3069"
         inkscape:connector-curvature="0" />
    </g>
    <g
       style="font-size:40px;font-style:normal;font-variant:normal;font-weight:bold;font-stretch:normal;line-height:125%;letter-spacing:0px;word-spacing:0px;fill:#00b400;fill-opacity:1;fill-rule:nonzero;stroke:#00b400;stroke-opacity:1;font-family:Arial;-inkscape-font-specification:Arial Bold"
       id="text3971-3-2"
       transform="translate(0,10)">
      <path
         d="m 329.69128,374.8945 -5.48828,0 0,-20.68359 c -2.00521,1.87502 -4.36849,3.26173 -7.08984,4.16015 l 0,-4.98047 c 1.43229,-0.46872 2.98827,-1.35739 4.66797,-2.66601 1.67968,-1.30857 2.83202,-2.83526 3.45703,-4.58008 l 4.45312,0 z"
         id="path3062"
         inkscape:connector-curvature="0" />
      <path
         d="m 337.71863,367.29684 5.3125,-0.64453 c 0.16926,1.35418 0.62499,2.38933 1.36719,3.10547 0.74217,0.71615 1.64061,1.07422 2.69531,1.07422 1.1328,0 2.08657,-0.42968 2.86133,-1.28906 0.77472,-0.85937 1.16209,-2.01822 1.16211,-3.47656 -2e-5,-1.3802 -0.37111,-2.47395 -1.11329,-3.28125 -0.7422,-0.80728 -1.64714,-1.21093 -2.71484,-1.21094 -0.70313,1e-5 -1.54298,0.13673 -2.51953,0.41015 l 0.60547,-4.47265 c 1.48436,0.0391 2.61717,-0.28319 3.39844,-0.9668 0.78123,-0.68357 1.17186,-1.59178 1.17187,-2.72461 -1e-5,-0.96352 -0.28647,-1.73175 -0.85937,-2.30469 -0.57293,-0.57289 -1.33465,-0.85935 -2.28516,-0.85937 -0.93751,2e-5 -1.73829,0.32554 -2.40234,0.97656 -0.66407,0.65107 -1.06772,1.60159 -1.21094,2.85156 l -5.0586,-0.85937 c 0.35156,-1.73175 0.88216,-3.11521 1.5918,-4.15039 0.70963,-1.03513 1.69921,-1.84893 2.96875,-2.44141 1.26952,-0.59242 2.69205,-0.88864 4.26758,-0.88867 2.6953,3e-5 4.85675,0.8594 6.48437,2.57813 1.34113,1.40627 2.0117,2.99481 2.01172,4.76562 -2e-5,2.51304 -1.37371,4.51825 -4.12109,6.01563 1.64061,0.35157 2.95246,1.13933 3.93555,2.36328 0.98305,1.22397 1.47458,2.70183 1.47461,4.43359 -3e-5,2.51303 -0.91799,4.65495 -2.75391,6.42578 -1.83595,1.77084 -4.12111,2.65625 -6.85547,2.65625 -2.59115,0 -4.73959,-0.74544 -6.44531,-2.23633 -1.70573,-1.49088 -2.69532,-3.44075 -2.96875,-5.84961 z"
         id="path3064"
         inkscape:connector-curvature="0" />
    </g>
    <g
       style="font-size:40px;font-style:normal;font-variant:normal;font-weight:bold;font-stretch:normal;line-height:125%;letter-spacing:0px;word-spacing:0px;fill:#00b400;fill-opacity:1;fill-rule:nonzero;stroke:#00b400;stroke-opacity:1;font-family:Arial;-inkscape-font-specification:Arial Bold"
       id="text3971-3-2-3"
       transform="translate(0,10)">
      <path
         d="m 400.15372,375.13864 -5.48828,0 0,-20.68359 c -2.00522,1.87502 -4.3685,3.26173 -7.08985,4.16015 l 0,-4.98046 c 1.43229,-0.46873 2.98828,-1.3574 4.66797,-2.66602 1.67968,-1.30857 2.83202,-2.83526 3.45703,-4.58008 l 4.45313,0 z"
         id="path3057"
         inkscape:connector-curvature="0" />
      <path
         d="m 419.13809,375.13864 0,-5.76172 -11.71875,0 0,-4.80468 12.42188,-18.1836 4.60937,0 0,18.16406 3.55469,0 0,4.82422 -3.55469,0 0,5.76172 z m 0,-10.58594 0,-9.78515 -6.58203,9.78515 z"
         id="path3059"
         inkscape:connector-curvature="0" />
    </g>
    <g
       style="font-size:40px;font-style:normal;font-variant:normal;font-weight:bold;font-stretch:normal;line-height:125%;letter-spacing:0px;word-spacing:0px;fill:#00b400;fill-opacity:1;fill-rule:nonzero;stroke:#00b400;stroke-opacity:1;font-family:Arial;-inkscape-font-specification:Arial Bold"
       id="text3971-1"
       transform="translate(0,10)">
      <path
         d="m 471.16302,374.8945 -5.48828,0 0,-20.68359 c -2.00521,1.87502 -4.36849,3.26173 -7.08984,4.16015 l 0,-4.98047 c 1.43229,-0.46872 2.98827,-1.35739 4.66797,-2.66601 1.67968,-1.30857 2.83202,-2.83526 3.45703,-4.58008 l 4.45312,0 z"
         id="path3052"
         inkscape:connector-curvature="0" />
      <path
         d="m 479.46381,367.53122 5.46875,-0.56641 c 0.15624,1.23699 0.61848,2.21681 1.38671,2.93946 0.76822,0.72266 1.65364,1.08398 2.65625,1.08398 1.14583,0 2.11588,-0.46549 2.91016,-1.39648 0.79426,-0.93099 1.19139,-2.33398 1.19141,-4.20899 -2e-5,-1.7578 -0.3939,-3.07616 -1.18164,-3.95508 -0.78778,-0.87889 -1.81317,-1.31834 -3.07618,-1.31836 -1.57553,2e-5 -2.98828,0.69663 -4.23828,2.08985 l -4.45312,-0.64453 2.8125,-14.90235 14.51172,0 0,5.13672 -10.35157,0 -0.85937,4.86328 c 1.22395,-0.61196 2.47395,-0.91795 3.75,-0.91797 2.43488,2e-5 4.49868,0.88544 6.19141,2.65625 1.69268,1.77085 2.53904,4.06903 2.53906,6.89454 -2e-5,2.35677 -0.68362,4.45964 -2.05078,6.30859 -1.862,2.52604 -4.44663,3.78906 -7.75391,3.78906 -2.64324,0 -4.79818,-0.70963 -6.46484,-2.1289 -1.66667,-1.41927 -2.66277,-3.32682 -2.98828,-5.72266 z"
         id="path3054"
         inkscape:connector-curvature="0" />
    </g>
    <g
       style="font-size:40px;font-style:normal;font-variant:normal;font-weight:bold;font-stretch:normal;line-height:125%;letter-spacing:0px;word-spacing:0px;fill:#00b400;fill-opacity:1;fill-rule:nonzero;stroke:#00b400;stroke-opacity:1;font-family:Arial;-inkscape-font-specification:Arial Bold"
       id="text3971-3-8"
       transform="translate(0,10)">
      <path
         d="m 542.1333,374.8945 -5.48828,0 0,-20.68359 c -2.00522,1.87502 -4.3685,3.26173 -7.08984,4.16015 l 0,-4.98047 c 1.43228,-0.46872 2.98827,-1.35739 4.66796,-2.66601 1.67968,-1.30857 2.83203,-2.83526 3.45704,-4.58008 l 4.45312,0 z"
         id="path3047"
         inkscape:connector-curvature="0" />
      <path
         d="m 568.94971,353.27341 -5.3125,0.58593 c -0.13023,-1.09372 -0.46877,-1.90101 -1.01563,-2.42187 -0.54689,-0.52081 -1.25652,-0.78123 -2.1289,-0.78125 -1.15887,2e-5 -2.13869,0.52086 -2.93946,1.5625 -0.80079,1.04169 -1.30534,3.20965 -1.51367,6.50391 1.36718,-1.61457 3.0664,-2.42186 5.09766,-2.42188 2.29165,2e-5 4.25454,0.87241 5.88867,2.61719 1.63409,1.7448 2.45115,3.99741 2.45117,6.75781 -2e-5,2.92969 -0.85939,5.27995 -2.57812,7.05078 -1.71877,1.77084 -3.9258,2.65625 -6.6211,2.65625 -2.89063,0 -5.26693,-1.12304 -7.1289,-3.36914 -1.86199,-2.24609 -2.79297,-5.92772 -2.79297,-11.04492 0,-5.24738 0.97005,-9.02993 2.91015,-11.34766 1.9401,-2.31768 4.45963,-3.47653 7.5586,-3.47656 2.17446,3e-5 3.97459,0.60875 5.40039,1.82617 1.42576,1.21748 2.33396,2.98505 2.72461,5.30274 z m -12.44141,11.97265 c -10e-6,1.78387 0.41015,3.16082 1.23047,4.13086 0.8203,0.97006 1.7578,1.45508 2.8125,1.45508 1.01561,0 1.86196,-0.39713 2.53906,-1.19141 0.67707,-0.79426 1.01561,-2.09634 1.01563,-3.90625 -2e-5,-1.86196 -0.3646,-3.22589 -1.09375,-4.09179 -0.72918,-0.86587 -1.64064,-1.29882 -2.73438,-1.29883 -1.0547,10e-6 -1.94662,0.41343 -2.67578,1.24023 -0.72917,0.82684 -1.09376,2.04754 -1.09375,3.66211 z"
         id="path3049"
         inkscape:connector-curvature="0" />
    </g>
    <g
       style="font-size:40px;font-style:normal;font-variant:normal;font-weight:bold;font-stretch:normal;line-height:125%;letter-spacing:0px;word-spacing:0px;fill:#00b400;fill-opacity:1;fill-rule:nonzero;stroke:#00b400;stroke-opacity:1;font-family:Arial;-inkscape-font-specification:Arial Bold"
       id="text3971-3-2-4"
       transform="translate(0,10)">
      <path
         d="m 613.17187,375.13864 -5.48828,0 0,-20.68359 c -2.00521,1.87502 -4.36849,3.26173 -7.08984,4.16015 l 0,-4.98046 c 1.43229,-0.46873 2.98828,-1.3574 4.66797,-2.66602 1.67968,-1.30857 2.83202,-2.83526 3.45703,-4.58008 l 4.45312,0 z"
         id="path3042"
         inkscape:connector-curvature="0" />
      <path
         d="m 621.39453,351.99411 0,-5.09766 18.76953,0 0,3.98438 c -1.5495,1.52346 -3.12501,3.71096 -4.72656,6.5625 -1.60158,2.85158 -2.82228,5.88217 -3.66211,9.0918 -0.83985,3.20964 -1.25327,6.07747 -1.24023,8.60351 l -5.29297,0 c 0.0911,-3.95833 0.90819,-7.99478 2.45117,-12.10937 1.54296,-4.11457 3.6035,-7.79295 6.18164,-11.03516 z"
         id="path3044"
         inkscape:connector-curvature="0" />
    </g>
    <g
       style="font-size:40px;font-style:normal;font-variant:normal;font-weight:bold;font-stretch:normal;line-height:125%;letter-spacing:0px;word-spacing:0px;fill:#00b400;fill-opacity:1;fill-rule:nonzero;stroke:#00b400;stroke-opacity:1;font-family:Arial;-inkscape-font-specification:Arial Bold"
       id="text3971-3-2-3-7"
       transform="translate(0,10)">
      <path
         d="m 684.04449,374.88474 -5.48828,0 0,-20.6836 c -2.00521,1.87502 -4.36849,3.26174 -7.08984,4.16016 l 0,-4.98047 c 1.43229,-0.46873 2.98827,-1.3574 4.66797,-2.66602 1.67968,-1.30857 2.83202,-2.83526 3.45703,-4.58007 l 4.45312,0 z"
         id="path3037"
         inkscape:connector-curvature="0" />
      <path
         d="m 696.97418,359.43552 c -1.41927,-0.59895 -2.45117,-1.42251 -3.0957,-2.47071 -0.64453,-1.04815 -0.9668,-2.19724 -0.9668,-3.44726 0,-2.1354 0.74544,-3.89972 2.23633,-5.29297 1.49088,-1.3932 3.61002,-2.08982 6.35742,-2.08984 2.72134,2e-5 4.83397,0.69664 6.33789,2.08984 1.50389,1.39325 2.25584,3.15757 2.25586,5.29297 -2e-5,1.32814 -0.34507,2.50978 -1.03515,3.54492 -0.69013,1.03517 -1.66018,1.82619 -2.91016,2.37305 1.58852,0.63803 2.79621,1.56902 3.62305,2.79297 0.8268,1.22396 1.24021,2.63672 1.24023,4.23828 -2e-5,2.64323 -0.84312,4.79167 -2.5293,6.44531 -1.68621,1.65365 -3.92905,2.48047 -6.72851,2.48047 -2.60418,0 -4.77214,-0.6836 -6.50391,-2.05078 -2.04427,-1.61458 -3.06641,-3.82812 -3.0664,-6.64063 -10e-6,-1.54947 0.38411,-2.97199 1.15234,-4.26758 0.76823,-1.29556 1.97916,-2.2949 3.63281,-2.99804 z m 1.13281,-5.52735 c 0,1.09377 0.30924,1.94664 0.92774,2.5586 0.61848,0.61199 1.44205,0.91798 2.4707,0.91797 1.04166,10e-6 1.87499,-0.30923 2.5,-0.92774 0.62499,-0.61847 0.93749,-1.47459 0.9375,-2.56836 -1e-5,-1.02862 -0.30926,-1.85219 -0.92773,-2.4707 -0.6185,-0.61847 -1.43556,-0.92771 -2.45117,-0.92774 -1.0547,3e-5 -1.89454,0.31253 -2.51954,0.9375 -0.625,0.62503 -0.9375,1.45185 -0.9375,2.48047 z m -0.50781,12.26563 c 0,1.51042 0.38736,2.68881 1.16211,3.53515 0.77473,0.84636 1.74153,1.26954 2.90039,1.26954 1.1328,0 2.0703,-0.4069 2.8125,-1.22071 0.74217,-0.81379 1.11327,-1.98892 1.11328,-3.52539 -10e-6,-1.34113 -0.37762,-2.41861 -1.13281,-3.23242 -0.75522,-0.81379 -1.71225,-1.22069 -2.87109,-1.2207 -1.34116,1e-5 -2.34051,0.46225 -2.99805,1.38672 -0.65756,0.92449 -0.98633,1.92709 -0.98633,3.00781 z"
         id="path3039"
         inkscape:connector-curvature="0" />
    </g>
    <g
       style="font-size:40px;font-style:normal;font-variant:normal;font-weight:bold;font-stretch:normal;line-height:125%;letter-spacing:0px;word-spacing:0px;fill:#00b400;fill-opacity:1;fill-rule:nonzero;stroke:#00b400;stroke-opacity:1;font-family:Arial;-inkscape-font-specification:Arial Bold"
       id="text3971-3-2-4-9"
       transform="translate(0,10)">
      <path
         d="m 754.93665,374.88474 -5.48829,0 0,-20.6836 c -2.00521,1.87502 -4.36849,3.26174 -7.08984,4.16016 l 0,-4.98047 c 1.43229,-0.46873 2.98828,-1.3574 4.66797,-2.66602 1.67968,-1.30857 2.83202,-2.83526 3.45703,-4.58007 l 4.45313,0 z"
         id="path3032"
         inkscape:connector-curvature="0" />
      <path
         d="m 763.27649,368.26364 5.3125,-0.58594 c 0.1302,1.08074 0.46874,1.88152 1.01562,2.40235 0.54687,0.52084 1.26953,0.78125 2.16797,0.78125 1.1328,0 2.09634,-0.52083 2.89063,-1.5625 0.79425,-1.04166 1.30207,-3.20312 1.52344,-6.48438 -1.38023,1.60158 -3.10548,2.40236 -5.17579,2.40235 -2.25261,1e-5 -4.19596,-0.86913 -5.83007,-2.60743 -1.63412,-1.73826 -2.45118,-4.00063 -2.45118,-6.7871 0,-2.90363 0.86263,-5.24412 2.58789,-7.02149 1.72526,-1.77732 3.92252,-2.66599 6.5918,-2.66601 2.90363,2e-5 5.28644,1.12307 7.14844,3.36914 1.86196,2.24611 2.79295,5.94077 2.79297,11.08398 -2e-5,5.23438 -0.97007,9.01042 -2.91016,11.32813 -1.94012,2.3177 -4.46616,3.47656 -7.57812,3.47656 -2.23959,0 -4.04949,-0.59571 -5.42969,-1.78711 -1.38021,-1.19141 -2.26563,-2.972 -2.65625,-5.3418 z m 12.42187,-11.99219 c -10e-6,-1.77081 -0.40691,-3.14451 -1.2207,-4.12109 -0.81381,-0.97654 -1.75457,-1.46482 -2.82226,-1.46484 -1.01564,2e-5 -1.85874,0.40041 -2.5293,1.20117 -0.67058,0.8008 -1.00587,2.11265 -1.00586,3.93555 -10e-6,1.84897 0.36458,3.20639 1.09375,4.07226 0.72916,0.8659 1.64061,1.29884 2.73437,1.29883 1.05468,10e-6 1.94335,-0.41665 2.66602,-1.25 0.72264,-0.83332 1.08397,-2.05728 1.08398,-3.67188 z"
         id="path3034"
         inkscape:connector-curvature="0" />
    </g>
    <g
       style="font-size:40px;font-style:normal;font-variant:normal;font-weight:bold;font-stretch:normal;line-height:125%;letter-spacing:0px;word-spacing:0px;fill:#00b400;fill-opacity:1;fill-rule:nonzero;stroke:#00b400;stroke-opacity:1;font-family:Arial;-inkscape-font-specification:Arial Bold"
       id="text3971-3-2-3-7-1"
       transform="translate(0,10)">
      <path
         d="m 831.4342,369.79684 0,5.09766 -19.23828,0 c 0.20833,-1.92708 0.83333,-3.75325 1.875,-5.47851 1.04167,-1.72526 3.09896,-4.01367 6.17188,-6.86524 2.47394,-2.30467 3.99087,-3.86717 4.55078,-4.6875 0.75519,-1.13279 1.1328,-2.25258 1.13281,-3.35937 -10e-6,-1.22394 -0.32879,-2.1647 -0.98633,-2.82227 -0.65756,-0.65753 -1.56576,-0.9863 -2.72461,-0.98633 -1.14584,3e-5 -2.0573,0.34508 -2.73437,1.03516 -0.67709,0.69012 -1.06772,1.83596 -1.17188,3.4375 l -5.46875,-0.54688 c 0.32552,-3.02081 1.34766,-5.18877 3.06641,-6.5039 1.71874,-1.31508 3.86718,-1.97263 6.44531,-1.97266 2.82551,3e-5 5.04556,0.76175 6.66016,2.28516 1.61456,1.52346 2.42185,3.41799 2.42187,5.68359 -2e-5,1.28908 -0.23114,2.5163 -0.69336,3.68164 -0.46225,1.16538 -1.19468,2.38608 -2.19726,3.66211 -0.66408,0.84637 -1.862,2.06381 -3.59375,3.65234 -1.73178,1.58855 -2.82879,2.64324 -3.29102,3.16407 -0.46225,0.52084 -0.83659,1.02865 -1.12304,1.52343 z"
         id="path3027"
         inkscape:connector-curvature="0" />
      <path
         d="m 844.44202,346.1445 c 2.77342,3e-5 4.94139,0.98961 6.5039,2.96875 1.86196,2.34377 2.79295,6.23049 2.79297,11.66016 -2e-5,5.41667 -0.93752,9.3099 -2.8125,11.67968 -1.54949,1.95313 -3.71095,2.92969 -6.48437,2.92969 -2.78647,0 -5.03256,-1.07096 -6.73828,-3.21289 -1.70574,-2.14192 -2.5586,-5.96028 -2.5586,-11.45508 0,-5.3906 0.9375,-9.27081 2.8125,-11.64062 1.54947,-1.9531 3.71093,-2.92966 6.48438,-2.92969 z m 0,4.55078 c -0.66408,3e-5 -1.25652,0.21161 -1.77735,0.63477 -0.52084,0.4232 -0.92448,1.18166 -1.21093,2.27539 -0.37762,1.41929 -0.56642,3.80861 -0.56641,7.16797 -10e-6,3.35938 0.16926,5.66732 0.50781,6.92383 0.33853,1.25651 0.76497,2.0931 1.2793,2.50976 0.51431,0.41667 1.1035,0.625 1.76758,0.625 0.66405,0 1.25649,-0.21158 1.77734,-0.63476 0.52082,-0.42318 0.92447,-1.18164 1.21094,-2.2754 0.37759,-1.40624 0.56639,-3.78905 0.5664,-7.14843 -1e-5,-3.35936 -0.16928,-5.6673 -0.50781,-6.92383 -0.33855,-1.25649 -0.76499,-2.09633 -1.2793,-2.51953 -0.51433,-0.42316 -1.10352,-0.63474 -1.76757,-0.63477 z"
         id="path3029"
         inkscape:connector-curvature="0" />
    </g>
  </g>
</svg>
