<?xml version="1.0" encoding="UTF-8" standalone="no"?>
<!-- Created with Inkscape (http://www.inkscape.org/) -->

<svg
   xmlns:dc="http://purl.org/dc/elements/1.1/"
   xmlns:cc="http://creativecommons.org/ns#"
   xmlns:rdf="http://www.w3.org/1999/02/22-rdf-syntax-ns#"
   xmlns:svg="http://www.w3.org/2000/svg"
   xmlns="http://www.w3.org/2000/svg"
   xmlns:sodipodi="http://sodipodi.sourceforge.net/DTD/sodipodi-0.dtd"
   xmlns:inkscape="http://www.inkscape.org/namespaces/inkscape"
   width="744.09448"
   height="814.96063"
   id="svg2"
   version="1.1"
   inkscape:version="0.48.4 r9939"
   sodipodi:docname="Table addition orig.svg">
  <defs
     id="defs4" />
  <sodipodi:namedview
     id="base"
     pagecolor="#ffffff"
     bordercolor="#666666"
     borderopacity="1.0"
     inkscape:pageopacity="0.0"
     inkscape:pageshadow="2"
     inkscape:zoom="0.7"
     inkscape:cx="214.65584"
     inkscape:cy="481.32395"
     inkscape:document-units="mm"
     inkscape:current-layer="layer1"
     showgrid="true"
     inkscape:window-width="1304"
     inkscape:window-height="746"
     inkscape:window-x="54"
     inkscape:window-y="-8"
     inkscape:window-maximized="1"
     units="mm"
     inkscape:snap-global="true"
     inkscape:snap-grids="true"
     inkscape:snap-bbox="true">
    <inkscape:grid
       type="xygrid"
       id="grid3844"
       empspacing="5"
       visible="true"
       enabled="true"
       snapvisiblegridlinesonly="true"
       units="mm"
       spacingx="1mm"
       spacingy="1mm"
       dotted="true" />
  </sodipodi:namedview>
  <metadata
     id="metadata7">
    <rdf:RDF>
      <cc:Work
         rdf:about="">
        <dc:format>image/svg+xml</dc:format>
        <dc:type
           rdf:resource="http://purl.org/dc/dcmitype/StillImage" />
        <dc:title />
      </cc:Work>
    </rdf:RDF>
  </metadata>
  <g
     inkscape:label="Layer 1"
     inkscape:groupmode="layer"
     id="layer1"
     transform="translate(0,-237.40131)">
    <path
       id="path4161"
       style="font-size:40px;font-style:normal;font-variant:normal;font-weight:bold;font-stretch:normal;text-align:center;line-height:125%;letter-spacing:0px;word-spacing:0px;writing-mode:lr-tb;text-anchor:middle;fill:none;stroke:#000000;stroke-opacity:1;font-family:Arial;-inkscape-font-specification:Arial Bold;fill-opacity:1"
       d="m 58.938671,304.78025 -5.48829,0 0,-20.6836 c -2.00521,1.87502 -4.36849,3.26174 -7.08984,4.16016 l 0,-4.98047 c 1.43229,-0.46873 2.98828,-1.3574 4.66797,-2.66601 1.67968,-1.30857 2.83202,-2.83526 3.45703,-4.58008 l 4.45313,0 z"
       inkscape:connector-curvature="0" />
    <g
       transform="translate(-65.90203,267.75806)"
       style="font-size:40px;font-style:normal;font-variant:normal;font-weight:normal;font-stretch:normal;text-align:center;line-height:125%;letter-spacing:0px;word-spacing:0px;text-anchor:middle;fill:none;stroke:#000000;stroke-opacity:1;font-family:Arial;-inkscape-font-specification:Arial;fill-opacity:1"
       id="flowRoot3755-7">
      <path
         inkscape:connector-curvature="0"
         d="m 128.03906,102.85653 0,5.09766 -19.23828,0 c 0.20833,-1.92708 0.83333,-3.75325 1.875,-5.47852 1.04166,-1.72525 3.09895,-4.013659 6.17188,-6.865231 2.47394,-2.304673 3.99087,-3.867171 4.55078,-4.6875 0.75519,-1.132794 1.1328,-2.252585 1.13281,-3.359375 -1e-5,-1.223937 -0.32879,-2.164691 -0.98633,-2.822266 -0.65756,-0.657528 -1.56577,-0.986303 -2.72461,-0.986328 -1.14584,2.5e-5 -2.0573,0.345076 -2.73437,1.035157 -0.67709,0.690126 -1.06772,1.835958 -1.17188,3.4375 l -5.46875,-0.546875 c 0.32552,-3.02081 1.34766,-5.188777 3.06641,-6.503907 1.71874,-1.315076 3.86718,-1.972627 6.44531,-1.972656 2.82551,2.9e-5 5.04556,0.761747 6.66016,2.285156 1.61456,1.523463 2.42185,3.417992 2.42187,5.683594 -2e-5,1.289082 -0.23114,2.516294 -0.69336,3.681641 -0.46226,1.16538 -1.19468,2.386082 -2.19726,3.662109 -0.66408,0.846367 -1.862,2.063814 -3.59375,3.652344 -1.73179,1.58855 -2.82879,2.643237 -3.29102,3.164067 -0.46225,0.52083 -0.8366,1.02865 -1.12304,1.52343 z"
         style="font-weight:bold;writing-mode:lr-tb;stroke:#000000;-inkscape-font-specification:Arial Bold;fill:none;fill-opacity:1;stroke-opacity:1"
         id="path4158" />
    </g>
    <g
       transform="translate(-66.302414,338.38007)"
       style="font-size:40px;font-style:normal;font-variant:normal;font-weight:normal;font-stretch:normal;text-align:center;line-height:125%;letter-spacing:0px;word-spacing:0px;text-anchor:middle;fill:none;stroke:#000000;stroke-opacity:1;font-family:Arial;-inkscape-font-specification:Arial;fill-opacity:1"
       id="flowRoot3755-7-8">
      <path
         inkscape:connector-curvature="0"
         d="m 109.30859,100.35653 5.3125,-0.644528 c 0.16927,1.354178 0.625,2.389328 1.36719,3.105468 0.74218,0.71615 1.64062,1.07422 2.69531,1.07422 1.1328,0 2.08658,-0.42968 2.86133,-1.28906 0.77473,-0.85937 1.1621,-2.01823 1.16211,-3.476566 -1e-5,-1.380198 -0.37111,-2.473947 -1.11328,-3.28125 -0.7422,-0.807279 -1.64715,-1.210924 -2.71484,-1.210937 -0.70314,1.3e-5 -1.54298,0.136732 -2.51953,0.410156 l 0.60546,-4.472656 c 1.48437,0.03908 2.61718,-0.283186 3.39844,-0.966797 0.78124,-0.683575 1.17186,-1.591777 1.17188,-2.72461 -2e-5,-0.963519 -0.28648,-1.731748 -0.85938,-2.304687 -0.57293,-0.572893 -1.33465,-0.859351 -2.28515,-0.859375 -0.93751,2.4e-5 -1.7383,0.325545 -2.40235,0.976562 -0.66407,0.651065 -1.06771,1.601584 -1.21094,2.851563 l -5.05859,-0.859375 c 0.35156,-1.731748 0.88216,-3.11521 1.5918,-4.150391 0.70963,-1.03513 1.69921,-1.848931 2.96875,-2.441406 1.26952,-0.59242 2.69205,-0.888643 4.26758,-0.888672 2.69529,2.9e-5 4.85675,0.859403 6.48437,2.578125 1.34113,1.406275 2.0117,2.994815 2.01172,4.765625 -2e-5,2.51304 -1.37372,4.518246 -4.12109,6.015625 1.6406,0.351578 2.95245,1.139337 3.93554,2.363281 0.98305,1.22397 1.47459,2.701834 1.47461,4.433594 -2e-5,2.513031 -0.91799,4.654951 -2.7539,6.425781 -1.83596,1.77083 -4.12111,2.65625 -6.85547,2.65625 -2.59116,0 -4.73959,-0.74544 -6.44532,-2.23633 -1.70573,-1.49088 -2.69531,-3.44075 -2.96875,-5.84961 z"
         style="font-weight:bold;writing-mode:lr-tb;stroke:#000000;-inkscape-font-specification:Arial Bold;fill:none;fill-opacity:1;stroke-opacity:1"
         id="path4155" />
    </g>
    <g
       transform="translate(-66.321953,409.49035)"
       style="font-size:40px;font-style:normal;font-variant:normal;font-weight:normal;font-stretch:normal;text-align:center;line-height:125%;letter-spacing:0px;word-spacing:0px;text-anchor:middle;fill:none;stroke:#000000;stroke-opacity:1;font-family:Arial;-inkscape-font-specification:Arial;fill-opacity:1"
       id="flowRoot3755-7-8-1">
      <path
         inkscape:connector-curvature="0"
         d="m 120.26563,107.95419 0,-5.76172 -11.71875,0 0,-4.804687 12.42187,-18.183594 4.60938,0 0,18.164063 3.55468,0 0,4.824218 -3.55468,0 0,5.76172 z m 0,-10.585938 0,-9.785157 -6.58204,9.785157 z"
         style="font-weight:bold;writing-mode:lr-tb;stroke:#000000;-inkscape-font-specification:Arial Bold;fill:none;fill-opacity:1;stroke-opacity:1"
         id="path4152" />
    </g>
    <g
       transform="translate(-66.693055,479.85844)"
       style="font-size:40px;font-style:normal;font-variant:normal;font-weight:normal;font-stretch:normal;text-align:center;line-height:125%;letter-spacing:0px;word-spacing:0px;text-anchor:middle;fill:none;stroke:#000000;stroke-opacity:1;font-family:Arial;-inkscape-font-specification:Arial;fill-opacity:1"
       id="flowRoot3755-7-8-1-2">
      <path
         inkscape:connector-curvature="0"
         d="m 109.58203,100.59091 5.46875,-0.56641 c 0.15624,1.23699 0.61848,2.2168 1.38672,2.93945 0.76822,0.72267 1.65364,1.08399 2.65625,1.08399 1.14582,0 2.11587,-0.46549 2.91016,-1.39649 0.79425,-0.93098 1.19139,-2.33397 1.1914,-4.20898 -1e-5,-1.757801 -0.39389,-3.076159 -1.18164,-3.955078 -0.78777,-0.878892 -1.81316,-1.318344 -3.07617,-1.318359 -1.57553,1.5e-5 -2.98829,0.696628 -4.23828,2.089844 l -4.45313,-0.644532 2.8125,-14.902343 14.51172,0 0,5.136718 -10.35156,0 -0.85937,4.863282 c 1.22394,-0.611961 2.47394,-0.91795 3.75,-0.917969 2.43488,1.9e-5 4.49868,0.885435 6.1914,2.65625 1.69269,1.770848 2.53904,4.069023 2.53906,6.894531 -2e-5,2.356776 -0.68361,4.459636 -2.05078,6.308596 -1.86199,2.52604 -4.44663,3.78906 -7.7539,3.78906 -2.64324,0 -4.79819,-0.70963 -6.46485,-2.12891 -1.66667,-1.41926 -2.66276,-3.32681 -2.98828,-5.72265 z"
         style="font-weight:bold;writing-mode:lr-tb;stroke:#000000;-inkscape-font-specification:Arial Bold;fill:none;fill-opacity:1;stroke-opacity:1"
         id="path4149" />
    </g>
    <g
       transform="translate(-66.546549,550.97849)"
       style="font-size:40px;font-style:normal;font-variant:normal;font-weight:normal;font-stretch:normal;text-align:center;line-height:125%;letter-spacing:0px;word-spacing:0px;text-anchor:middle;fill:none;stroke:#000000;stroke-opacity:1;font-family:Arial;-inkscape-font-specification:Arial;fill-opacity:1"
       id="flowRoot3755-7-8-1-2-2">
      <path
         inkscape:connector-curvature="0"
         d="m 128.09766,86.333095 -5.3125,0.585938 c -0.13023,-1.093728 -0.46877,-1.901019 -1.01563,-2.421875 -0.54689,-0.52081 -1.25652,-0.781226 -2.1289,-0.78125 -1.15887,2.4e-5 -2.13869,0.520857 -2.93946,1.5625 -0.80079,1.041688 -1.30534,3.209655 -1.51367,6.503906 1.36718,-1.614565 3.0664,-2.421856 5.09766,-2.421875 2.29165,1.9e-5 4.25454,0.872414 5.88867,2.617188 1.63409,1.744805 2.45115,3.997407 2.45117,6.757812 -2e-5,2.929691 -0.85939,5.279951 -2.57812,7.050781 -1.71877,1.77083 -3.9258,2.65625 -6.6211,2.65625 -2.89063,0 -5.26693,-1.12305 -7.1289,-3.36914 -1.86199,-2.24609 -2.79298,-5.927726 -2.79297,-11.044922 -1e-5,-5.247377 0.97005,-9.029925 2.91015,-11.347656 1.9401,-2.317681 4.45963,-3.476534 7.5586,-3.476563 2.17446,2.9e-5 3.97459,0.608752 5.40039,1.826172 1.42576,1.217474 2.33396,2.98505 2.72461,5.302734 z m -12.44141,11.972657 c -1e-5,1.783858 0.41015,3.160818 1.23047,4.130858 0.8203,0.97006 1.7578,1.45508 2.8125,1.45508 1.01561,0 1.86196,-0.39713 2.53906,-1.19141 0.67707,-0.79426 1.01561,-2.09634 1.01563,-3.906247 -2e-5,-1.861968 -0.3646,-3.225899 -1.09375,-4.091797 -0.72918,-0.865871 -1.64064,-1.298814 -2.73438,-1.298828 -1.0547,1.4e-5 -1.94662,0.413425 -2.67578,1.240234 -0.72917,0.826836 -1.09376,2.047537 -1.09375,3.66211 z"
         style="font-weight:bold;writing-mode:lr-tb;stroke:#000000;-inkscape-font-specification:Arial Bold;fill:none;fill-opacity:1;stroke-opacity:1"
         id="path4146" />
    </g>
    <g
       transform="translate(-65.884736,621.83486)"
       style="font-size:40px;font-style:normal;font-variant:normal;font-weight:normal;font-stretch:normal;text-align:center;line-height:125%;letter-spacing:0px;word-spacing:0px;text-anchor:middle;fill:none;stroke:#000000;stroke-opacity:1;font-family:Arial;-inkscape-font-specification:Arial;fill-opacity:1"
       id="flowRoot3755-7-8-1-2-2-6">
      <path
         inkscape:connector-curvature="0"
         d="m 109.50391,84.809658 0,-5.097656 18.76953,0 0,3.984375 c -1.5495,1.52346 -3.12502,3.710958 -4.72656,6.5625 -1.60158,2.851577 -2.82228,5.882173 -3.66211,9.091796 -0.83986,3.209637 -1.25327,6.077477 -1.24024,8.603517 l -5.29297,0 c 0.0911,-3.95833 0.9082,-7.994785 2.45117,-12.109376 1.54296,-4.114567 3.60351,-7.792949 6.18165,-11.035156 z"
         style="font-weight:bold;writing-mode:lr-tb;stroke:#000000;-inkscape-font-specification:Arial Bold;fill:none;fill-opacity:1;stroke-opacity:1"
         id="path4143" />
    </g>
    <g
       transform="translate(-66.321955,692.70101)"
       style="font-size:40px;font-style:normal;font-variant:normal;font-weight:normal;font-stretch:normal;text-align:center;line-height:125%;letter-spacing:0px;word-spacing:0px;text-anchor:middle;fill:none;stroke:#000000;stroke-opacity:1;font-family:Arial;-inkscape-font-specification:Arial;fill-opacity:1"
       id="flowRoot3755-7-8-1-2-2-6-1">
      <path
         inkscape:connector-curvature="0"
         d="m 114.21094,92.50497 c -1.41928,-0.598942 -2.45118,-1.422509 -3.09571,-2.470703 -0.64453,-1.048158 -0.96679,-2.197245 -0.96679,-3.447265 0,-2.135394 0.74544,-3.899715 2.23633,-5.292969 1.49087,-1.393201 3.61001,-2.089815 6.35742,-2.089844 2.72134,2.9e-5 4.83397,0.696643 6.33789,2.089844 1.50389,1.393254 2.25584,3.157575 2.25586,5.292969 -2e-5,1.328145 -0.34507,2.509784 -1.03516,3.544921 -0.69012,1.035173 -1.66017,1.826188 -2.91015,2.373047 1.58852,0.638036 2.7962,1.569025 3.62304,2.792969 0.8268,1.22397 1.24022,2.636729 1.24024,4.238281 -2e-5,2.64324 -0.84312,4.79167 -2.5293,6.44531 -1.68621,1.65365 -3.92905,2.48047 -6.72852,2.48047 -2.60417,0 -4.77214,-0.68359 -6.5039,-2.05078 -2.04428,-1.61458 -3.06641,-3.82812 -3.06641,-6.640625 0,-1.549469 0.38411,-2.971994 1.15235,-4.267578 0.76822,-1.295559 1.97916,-2.294907 3.63281,-2.998047 z m 1.13281,-5.527343 c -1e-5,1.093769 0.30924,1.946633 0.92773,2.558593 0.61848,0.611997 1.44205,0.917987 2.47071,0.917969 1.04165,1.8e-5 1.87498,-0.309227 2.5,-0.927734 0.62498,-0.618471 0.93748,-1.47459 0.9375,-2.56836 -2e-5,-1.028623 -0.30926,-1.85219 -0.92774,-2.470703 -0.6185,-0.618465 -1.43556,-0.92771 -2.45117,-0.927734 -1.0547,2.4e-5 -1.89454,0.312524 -2.51953,0.9375 -0.62501,0.625023 -0.93751,1.451845 -0.9375,2.480469 z m -0.50781,12.265625 c -10e-6,1.510428 0.38736,2.688808 1.16211,3.535158 0.77473,0.84636 1.74152,1.26953 2.90039,1.26953 1.1328,0 2.0703,-0.4069 2.8125,-1.2207 0.74217,-0.8138 1.11326,-1.98893 1.11328,-3.525395 -2e-5,-1.341136 -0.37762,-2.418608 -1.13281,-3.232422 -0.75523,-0.813789 -1.71226,-1.22069 -2.8711,-1.220703 -1.34115,1.3e-5 -2.3405,0.462253 -2.99804,1.386719 -0.65756,0.92449 -0.98634,1.927093 -0.98633,3.007813 z"
         style="font-weight:bold;writing-mode:lr-tb;stroke:#000000;-inkscape-font-specification:Arial Bold;fill:none;fill-opacity:1;stroke-opacity:1"
         id="path4140" />
    </g>
    <g
       transform="translate(-66.116885,763.56715)"
       style="font-size:40px;font-style:normal;font-variant:normal;font-weight:normal;font-stretch:normal;text-align:center;line-height:125%;letter-spacing:0px;word-spacing:0px;text-anchor:middle;fill:none;stroke:#000000;stroke-opacity:1;font-family:Arial;-inkscape-font-specification:Arial;fill-opacity:1"
       id="flowRoot3755-7-8-1-2-2-6-1-9">
      <path
         inkscape:connector-curvature="0"
         d="m 109.62109,101.3331 5.3125,-0.58594 c 0.1302,1.08073 0.46875,1.88151 1.01563,2.40234 0.54687,0.52084 1.26952,0.78126 2.16797,0.78125 1.1328,1e-5 2.09634,-0.52083 2.89062,-1.5625 0.79426,-1.04166 1.30207,-3.203115 1.52344,-6.484373 -1.38022,1.601573 -3.10548,2.402353 -5.17578,2.402343 -2.25261,1e-5 -4.19597,-0.86913 -5.83008,-2.607422 -1.63412,-1.738267 -2.45117,-4.000634 -2.45117,-6.787109 0,-2.903624 0.86263,-5.244116 2.58789,-7.021484 1.72525,-1.777316 3.92252,-2.665987 6.5918,-2.666016 2.90363,2.9e-5 5.28644,1.123075 7.14843,3.369141 1.86196,2.246117 2.79295,5.940774 2.79297,11.083984 -2e-5,5.234384 -0.97007,9.010426 -2.91015,11.328126 -1.94012,2.31771 -4.46616,3.47656 -7.57813,3.47656 -2.23959,0 -4.04948,-0.5957 -5.42969,-1.78711 -1.38021,-1.1914 -2.26562,-2.972 -2.65625,-5.34179 z m 12.42188,-11.992192 c -2e-5,-1.770813 -0.40692,-3.14451 -1.2207,-4.121094 C 120.00845,84.243275 119.0677,83.754995 118,83.75497 c -1.01563,2.5e-5 -1.85873,0.400415 -2.5293,1.201172 -0.67058,0.800804 -1.00586,2.112651 -1.00586,3.935547 0,1.848976 0.36458,3.206396 1.09375,4.072266 0.72916,0.865899 1.64062,1.298842 2.73438,1.298828 1.05467,1.4e-5 1.94335,-0.416653 2.66601,-1.25 0.72265,-0.833318 1.08397,-2.057275 1.08399,-3.671875 z"
         style="font-weight:bold;writing-mode:lr-tb;stroke:#000000;-inkscape-font-specification:Arial Bold;fill:none;fill-opacity:1;stroke-opacity:1"
         id="path4137" />
    </g>
    <g
       transform="translate(-68.021191,834.44305)"
       style="font-size:40px;font-style:normal;font-variant:normal;font-weight:normal;font-stretch:normal;text-align:center;line-height:125%;letter-spacing:0px;word-spacing:0px;text-anchor:middle;fill:none;stroke:#000000;stroke-opacity:1;font-family:Arial;-inkscape-font-specification:Arial;fill-opacity:1"
       id="flowRoot3755-7-8-1-2-2-6-1-9-2">
      <path
         inkscape:connector-curvature="0"
         d="m 113.42969,107.95419 -5.48828,0 0,-20.683595 c -2.00522,1.875019 -4.3685,3.261736 -7.08985,4.160157 l 0,-4.980469 c 1.43229,-0.468728 2.98828,-1.357399 4.66797,-2.666016 1.67968,-1.308568 2.83202,-2.835259 3.45703,-4.580078 l 4.45313,0 z"
         style="font-weight:bold;writing-mode:lr-tb;stroke:#000000;-inkscape-font-specification:Arial Bold;fill:none;fill-opacity:1;stroke-opacity:1"
         id="path4132" />
      <path
         inkscape:connector-curvature="0"
         d="m 130.92969,79.204189 c 2.77342,2.9e-5 4.94139,0.989611 6.5039,2.96875 1.86196,2.343774 2.79295,6.230488 2.79297,11.660156 -2e-5,5.416676 -0.93752,9.309905 -2.8125,11.679685 -1.54949,1.95313 -3.71095,2.92969 -6.48437,2.92969 -2.78647,0 -5.03256,-1.07096 -6.73828,-3.21289 -1.70574,-2.14192 -2.5586,-5.960278 -2.5586,-11.455078 0,-5.390606 0.9375,-9.27081 2.8125,-11.640625 1.54948,-1.953098 3.71093,-2.929659 6.48438,-2.929688 z m 0,4.550781 c -0.66408,2.5e-5 -1.25652,0.211613 -1.77735,0.634766 -0.52084,0.4232 -0.92448,1.181663 -1.21093,2.275391 -0.37762,1.41929 -0.56642,3.808611 -0.56641,7.167968 -1e-5,3.359386 0.16926,5.667326 0.50781,6.923825 0.33854,1.25652 0.76497,2.09311 1.2793,2.50977 0.51431,0.41667 1.1035,0.625 1.76758,0.625 0.66405,0 1.2565,-0.21159 1.77734,-0.63477 0.52082,-0.42317 0.92447,-1.18163 1.21094,-2.27539 0.37759,-1.406239 0.56639,-3.789049 0.5664,-7.148435 -1e-5,-3.359357 -0.16928,-5.667298 -0.50781,-6.923828 -0.33855,-1.256488 -0.76498,-2.096331 -1.27929,-2.519531 -0.51434,-0.423153 -1.10353,-0.634741 -1.76758,-0.634766 z"
         style="font-weight:bold;writing-mode:lr-tb;stroke:#000000;-inkscape-font-specification:Arial Bold;fill:none;fill-opacity:1;stroke-opacity:1"
         id="path4134" />
    </g>
    <path
       id="path4161-8"
       style="font-size:40px;font-style:normal;font-variant:normal;font-weight:bold;font-stretch:normal;text-align:center;line-height:125%;letter-spacing:0px;word-spacing:0px;writing-mode:lr-tb;text-anchor:middle;fill:none;stroke:#000000;stroke-opacity:1;font-family:Arial;-inkscape-font-specification:Arial Bold;fill-opacity:1"
       d="m 696.73394,871.70939 -5.48829,0 0,-20.6836 c -2.00521,1.87502 -4.36849,3.26174 -7.08984,4.16016 l 0,-4.98047 c 1.43229,-0.46873 2.98828,-1.3574 4.66797,-2.66601 1.67968,-1.30857 2.83202,-2.83526 3.45703,-4.58008 l 4.45313,0 z"
       inkscape:connector-curvature="0" />
    <g
       transform="translate(501.0271,692.95491)"
       style="font-size:40px;font-style:normal;font-variant:normal;font-weight:normal;font-stretch:normal;text-align:center;line-height:125%;letter-spacing:0px;word-spacing:0px;text-anchor:middle;fill:none;stroke:#000000;stroke-opacity:1;font-family:Arial;-inkscape-font-specification:Arial;fill-opacity:1"
       id="flowRoot3755-7-7">
      <path
         inkscape:connector-curvature="0"
         d="m 128.03906,102.85653 0,5.09766 -19.23828,0 c 0.20833,-1.92708 0.83333,-3.75325 1.875,-5.47852 1.04166,-1.72525 3.09895,-4.013659 6.17188,-6.865231 2.47394,-2.304673 3.99087,-3.867171 4.55078,-4.6875 0.75519,-1.132794 1.1328,-2.252585 1.13281,-3.359375 -1e-5,-1.223937 -0.32879,-2.164691 -0.98633,-2.822266 -0.65756,-0.657528 -1.56577,-0.986303 -2.72461,-0.986328 -1.14584,2.5e-5 -2.0573,0.345076 -2.73437,1.035157 -0.67709,0.690126 -1.06772,1.835958 -1.17188,3.4375 l -5.46875,-0.546875 c 0.32552,-3.02081 1.34766,-5.188777 3.06641,-6.503907 1.71874,-1.315076 3.86718,-1.972627 6.44531,-1.972656 2.82551,2.9e-5 5.04556,0.761747 6.66016,2.285156 1.61456,1.523463 2.42185,3.417992 2.42187,5.683594 -2e-5,1.289082 -0.23114,2.516294 -0.69336,3.681641 -0.46226,1.16538 -1.19468,2.386082 -2.19726,3.662109 -0.66408,0.846367 -1.862,2.063814 -3.59375,3.652344 -1.73179,1.58855 -2.82879,2.643237 -3.29102,3.164067 -0.46225,0.52083 -0.8366,1.02865 -1.12304,1.52343 z"
         style="font-weight:bold;writing-mode:lr-tb;stroke:#000000;-inkscape-font-specification:Arial Bold;fill:none;fill-opacity:1;stroke-opacity:1"
         id="path4158-7" />
    </g>
    <g
       transform="translate(430.24661,621.84463)"
       style="font-size:40px;font-style:normal;font-variant:normal;font-weight:normal;font-stretch:normal;text-align:center;line-height:125%;letter-spacing:0px;word-spacing:0px;text-anchor:middle;fill:none;stroke:#000000;stroke-opacity:1;font-family:Arial;-inkscape-font-specification:Arial;fill-opacity:1"
       id="flowRoot3755-7-8-19">
      <path
         inkscape:connector-curvature="0"
         d="m 109.30859,100.35653 5.3125,-0.644528 c 0.16927,1.354178 0.625,2.389328 1.36719,3.105468 0.74218,0.71615 1.64062,1.07422 2.69531,1.07422 1.1328,0 2.08658,-0.42968 2.86133,-1.28906 0.77473,-0.85937 1.1621,-2.01823 1.16211,-3.476566 -1e-5,-1.380198 -0.37111,-2.473947 -1.11328,-3.28125 -0.7422,-0.807279 -1.64715,-1.210924 -2.71484,-1.210937 -0.70314,1.3e-5 -1.54298,0.136732 -2.51953,0.410156 l 0.60546,-4.472656 c 1.48437,0.03908 2.61718,-0.283186 3.39844,-0.966797 0.78124,-0.683575 1.17186,-1.591777 1.17188,-2.72461 -2e-5,-0.963519 -0.28648,-1.731748 -0.85938,-2.304687 -0.57293,-0.572893 -1.33465,-0.859351 -2.28515,-0.859375 -0.93751,2.4e-5 -1.7383,0.325545 -2.40235,0.976562 -0.66407,0.651065 -1.06771,1.601584 -1.21094,2.851563 l -5.05859,-0.859375 c 0.35156,-1.731748 0.88216,-3.11521 1.5918,-4.150391 0.70963,-1.03513 1.69921,-1.848931 2.96875,-2.441406 1.26952,-0.59242 2.69205,-0.888643 4.26758,-0.888672 2.69529,2.9e-5 4.85675,0.859403 6.48437,2.578125 1.34113,1.406275 2.0117,2.994815 2.01172,4.765625 -2e-5,2.51304 -1.37372,4.518246 -4.12109,6.015625 1.6406,0.351578 2.95245,1.139337 3.93554,2.363281 0.98305,1.22397 1.47459,2.701834 1.47461,4.433594 -2e-5,2.513031 -0.91799,4.654951 -2.7539,6.425781 -1.83596,1.77083 -4.12111,2.65625 -6.85547,2.65625 -2.59116,0 -4.73959,-0.74544 -6.44532,-2.23633 -1.70573,-1.49088 -2.69531,-3.44075 -2.96875,-5.84961 z"
         style="font-weight:bold;writing-mode:lr-tb;stroke:#000000;-inkscape-font-specification:Arial Bold;fill:none;fill-opacity:1;stroke-opacity:1"
         id="path4155-8" />
    </g>
    <g
       transform="translate(359.36094,551.22263)"
       style="font-size:40px;font-style:normal;font-variant:normal;font-weight:normal;font-stretch:normal;text-align:center;line-height:125%;letter-spacing:0px;word-spacing:0px;text-anchor:middle;fill:none;stroke:#000000;stroke-opacity:1;font-family:Arial;-inkscape-font-specification:Arial;fill-opacity:1"
       id="flowRoot3755-7-8-1-28">
      <path
         inkscape:connector-curvature="0"
         d="m 120.26563,107.95419 0,-5.76172 -11.71875,0 0,-4.804687 12.42187,-18.183594 4.60938,0 0,18.164063 3.55468,0 0,4.824218 -3.55468,0 0,5.76172 z m 0,-10.585938 0,-9.785157 -6.58204,9.785157 z"
         style="font-weight:bold;writing-mode:lr-tb;stroke:#000000;-inkscape-font-specification:Arial Bold;fill:none;fill-opacity:1;stroke-opacity:1"
         id="path4152-6" />
    </g>
    <g
       transform="translate(288.12371,479.85844)"
       style="font-size:40px;font-style:normal;font-variant:normal;font-weight:normal;font-stretch:normal;text-align:center;line-height:125%;letter-spacing:0px;word-spacing:0px;text-anchor:middle;fill:none;stroke:#000000;stroke-opacity:1;font-family:Arial;-inkscape-font-specification:Arial;fill-opacity:1"
       id="flowRoot3755-7-8-1-2-4">
      <path
         inkscape:connector-curvature="0"
         d="m 109.58203,100.59091 5.46875,-0.56641 c 0.15624,1.23699 0.61848,2.2168 1.38672,2.93945 0.76822,0.72267 1.65364,1.08399 2.65625,1.08399 1.14582,0 2.11587,-0.46549 2.91016,-1.39649 0.79425,-0.93098 1.19139,-2.33397 1.1914,-4.20898 -1e-5,-1.757801 -0.39389,-3.076159 -1.18164,-3.955078 -0.78777,-0.878892 -1.81316,-1.318344 -3.07617,-1.318359 -1.57553,1.5e-5 -2.98829,0.696628 -4.23828,2.089844 l -4.45313,-0.644532 2.8125,-14.902343 14.51172,0 0,5.136718 -10.35156,0 -0.85937,4.863282 c 1.22394,-0.611961 2.47394,-0.91795 3.75,-0.917969 2.43488,1.9e-5 4.49868,0.885435 6.1914,2.65625 1.69269,1.770848 2.53904,4.069023 2.53906,6.894531 -2e-5,2.356776 -0.68361,4.459636 -2.05078,6.308596 -1.86199,2.52604 -4.44663,3.78906 -7.7539,3.78906 -2.64324,0 -4.79819,-0.70963 -6.46485,-2.12891 -1.66667,-1.41926 -2.66276,-3.32681 -2.98828,-5.72265 z"
         style="font-weight:bold;writing-mode:lr-tb;stroke:#000000;-inkscape-font-specification:Arial Bold;fill:none;fill-opacity:1;stroke-opacity:1"
         id="path4149-8" />
    </g>
    <g
       transform="translate(217.40405,409.2462)"
       style="font-size:40px;font-style:normal;font-variant:normal;font-weight:normal;font-stretch:normal;text-align:center;line-height:125%;letter-spacing:0px;word-spacing:0px;text-anchor:middle;fill:none;stroke:#000000;stroke-opacity:1;font-family:Arial;-inkscape-font-specification:Arial;fill-opacity:1"
       id="flowRoot3755-7-8-1-2-2-0">
      <path
         inkscape:connector-curvature="0"
         d="m 128.09766,86.333095 -5.3125,0.585938 c -0.13023,-1.093728 -0.46877,-1.901019 -1.01563,-2.421875 -0.54689,-0.52081 -1.25652,-0.781226 -2.1289,-0.78125 -1.15887,2.4e-5 -2.13869,0.520857 -2.93946,1.5625 -0.80079,1.041688 -1.30534,3.209655 -1.51367,6.503906 1.36718,-1.614565 3.0664,-2.421856 5.09766,-2.421875 2.29165,1.9e-5 4.25454,0.872414 5.88867,2.617188 1.63409,1.744805 2.45115,3.997407 2.45117,6.757812 -2e-5,2.929691 -0.85939,5.279951 -2.57812,7.050781 -1.71877,1.77083 -3.9258,2.65625 -6.6211,2.65625 -2.89063,0 -5.26693,-1.12305 -7.1289,-3.36914 -1.86199,-2.24609 -2.79298,-5.927726 -2.79297,-11.044922 -1e-5,-5.247377 0.97005,-9.029925 2.91015,-11.347656 1.9401,-2.317681 4.45963,-3.476534 7.5586,-3.476563 2.17446,2.9e-5 3.97459,0.608752 5.40039,1.826172 1.42576,1.217474 2.33396,2.98505 2.72461,5.302734 z m -12.44141,11.972657 c -1e-5,1.783858 0.41015,3.160818 1.23047,4.130858 0.8203,0.97006 1.7578,1.45508 2.8125,1.45508 1.01561,0 1.86196,-0.39713 2.53906,-1.19141 0.67707,-0.79426 1.01561,-2.09634 1.01563,-3.906247 -2e-5,-1.861968 -0.3646,-3.225899 -1.09375,-4.091797 -0.72918,-0.865871 -1.64064,-1.298814 -2.73438,-1.298828 -1.0547,1.4e-5 -1.94662,0.413425 -2.67578,1.240234 -0.72917,0.826836 -1.09376,2.047537 -1.09375,3.66211 z"
         style="font-weight:bold;writing-mode:lr-tb;stroke:#000000;-inkscape-font-specification:Arial Bold;fill:none;fill-opacity:1;stroke-opacity:1"
         id="path4146-9" />
    </g>
    <g
       transform="translate(146.71368,338.3703)"
       style="font-size:40px;font-style:normal;font-variant:normal;font-weight:normal;font-stretch:normal;text-align:center;line-height:125%;letter-spacing:0px;word-spacing:0px;text-anchor:middle;fill:none;stroke:#000000;stroke-opacity:1;font-family:Arial;-inkscape-font-specification:Arial;fill-opacity:1"
       id="flowRoot3755-7-8-1-2-2-6-6">
      <path
         inkscape:connector-curvature="0"
         d="m 109.50391,84.809658 0,-5.097656 18.76953,0 0,3.984375 c -1.5495,1.52346 -3.12502,3.710958 -4.72656,6.5625 -1.60158,2.851577 -2.82228,5.882173 -3.66211,9.091796 -0.83986,3.209637 -1.25327,6.077477 -1.24024,8.603517 l -5.29297,0 c 0.0911,-3.95833 0.9082,-7.994785 2.45117,-12.109376 1.54296,-4.114567 3.60351,-7.792949 6.18165,-11.035156 z"
         style="font-weight:bold;writing-mode:lr-tb;stroke:#000000;-inkscape-font-specification:Arial Bold;fill:none;fill-opacity:1;stroke-opacity:1"
         id="path4143-1" />
    </g>
    <g
       transform="translate(75.896371,267.50416)"
       style="font-size:40px;font-style:normal;font-variant:normal;font-weight:normal;font-stretch:normal;text-align:center;line-height:125%;letter-spacing:0px;word-spacing:0px;text-anchor:middle;fill:none;stroke:#000000;stroke-opacity:1;font-family:Arial;-inkscape-font-specification:Arial;fill-opacity:1"
       id="flowRoot3755-7-8-1-2-2-6-1-93">
      <path
         inkscape:connector-curvature="0"
         d="m 114.21094,92.50497 c -1.41928,-0.598942 -2.45118,-1.422509 -3.09571,-2.470703 -0.64453,-1.048158 -0.96679,-2.197245 -0.96679,-3.447265 0,-2.135394 0.74544,-3.899715 2.23633,-5.292969 1.49087,-1.393201 3.61001,-2.089815 6.35742,-2.089844 2.72134,2.9e-5 4.83397,0.696643 6.33789,2.089844 1.50389,1.393254 2.25584,3.157575 2.25586,5.292969 -2e-5,1.328145 -0.34507,2.509784 -1.03516,3.544921 -0.69012,1.035173 -1.66017,1.826188 -2.91015,2.373047 1.58852,0.638036 2.7962,1.569025 3.62304,2.792969 0.8268,1.22397 1.24022,2.636729 1.24024,4.238281 -2e-5,2.64324 -0.84312,4.79167 -2.5293,6.44531 -1.68621,1.65365 -3.92905,2.48047 -6.72852,2.48047 -2.60417,0 -4.77214,-0.68359 -6.5039,-2.05078 -2.04428,-1.61458 -3.06641,-3.82812 -3.06641,-6.640625 0,-1.549469 0.38411,-2.971994 1.15235,-4.267578 0.76822,-1.295559 1.97916,-2.294907 3.63281,-2.998047 z m 1.13281,-5.527343 c -1e-5,1.093769 0.30924,1.946633 0.92773,2.558593 0.61848,0.611997 1.44205,0.917987 2.47071,0.917969 1.04165,1.8e-5 1.87498,-0.309227 2.5,-0.927734 0.62498,-0.618471 0.93748,-1.47459 0.9375,-2.56836 -2e-5,-1.028623 -0.30926,-1.85219 -0.92774,-2.470703 -0.6185,-0.618465 -1.43556,-0.92771 -2.45117,-0.927734 -1.0547,2.4e-5 -1.89454,0.312524 -2.51953,0.9375 -0.62501,0.625023 -0.93751,1.451845 -0.9375,2.480469 z m -0.50781,12.265625 c -10e-6,1.510428 0.38736,2.688808 1.16211,3.535158 0.77473,0.84636 1.74152,1.26953 2.90039,1.26953 1.1328,0 2.0703,-0.4069 2.8125,-1.2207 0.74217,-0.8138 1.11326,-1.98893 1.11328,-3.525395 -2e-5,-1.341136 -0.37762,-2.418608 -1.13281,-3.232422 -0.75523,-0.813789 -1.71226,-1.22069 -2.8711,-1.220703 -1.34115,1.3e-5 -2.3405,0.462253 -2.99804,1.386719 -0.65756,0.92449 -0.98634,1.927093 -0.98633,3.007813 z"
         style="font-weight:bold;writing-mode:lr-tb;stroke:#000000;-inkscape-font-specification:Arial Bold;fill:none;fill-opacity:1;stroke-opacity:1"
         id="path4140-4" />
    </g>
    <g
       transform="translate(5.2353106,196.63802)"
       style="font-size:40px;font-style:normal;font-variant:normal;font-weight:normal;font-stretch:normal;text-align:center;line-height:125%;letter-spacing:0px;word-spacing:0px;text-anchor:middle;fill:none;stroke:#000000;stroke-opacity:1;font-family:Arial;-inkscape-font-specification:Arial;fill-opacity:1"
       id="flowRoot3755-7-8-1-2-2-6-1-9-0">
      <path
         inkscape:connector-curvature="0"
         d="m 109.62109,101.3331 5.3125,-0.58594 c 0.1302,1.08073 0.46875,1.88151 1.01563,2.40234 0.54687,0.52084 1.26952,0.78126 2.16797,0.78125 1.1328,1e-5 2.09634,-0.52083 2.89062,-1.5625 0.79426,-1.04166 1.30207,-3.203115 1.52344,-6.484373 -1.38022,1.601573 -3.10548,2.402353 -5.17578,2.402343 -2.25261,1e-5 -4.19597,-0.86913 -5.83008,-2.607422 -1.63412,-1.738267 -2.45117,-4.000634 -2.45117,-6.787109 0,-2.903624 0.86263,-5.244116 2.58789,-7.021484 1.72525,-1.777316 3.92252,-2.665987 6.5918,-2.666016 2.90363,2.9e-5 5.28644,1.123075 7.14843,3.369141 1.86196,2.246117 2.79295,5.940774 2.79297,11.083984 -2e-5,5.234384 -0.97007,9.010426 -2.91015,11.328126 -1.94012,2.31771 -4.46616,3.47656 -7.57813,3.47656 -2.23959,0 -4.04948,-0.5957 -5.42969,-1.78711 -1.38021,-1.1914 -2.26562,-2.972 -2.65625,-5.34179 z m 12.42188,-11.992192 c -2e-5,-1.770813 -0.40692,-3.14451 -1.2207,-4.121094 C 120.00845,84.243275 119.0677,83.754995 118,83.75497 c -1.01563,2.5e-5 -1.85873,0.400415 -2.5293,1.201172 -0.67058,0.800804 -1.00586,2.112651 -1.00586,3.935547 0,1.848976 0.36458,3.206396 1.09375,4.072266 0.72916,0.865899 1.64062,1.298842 2.73438,1.298828 1.05467,1.4e-5 1.94335,-0.416653 2.66601,-1.25 0.72265,-0.833318 1.08397,-2.057275 1.08399,-3.671875 z"
         style="font-weight:bold;writing-mode:lr-tb;stroke:#000000;-inkscape-font-specification:Arial Bold;fill:none;fill-opacity:1;stroke-opacity:1"
         id="path4137-6" />
    </g>
    <g
       transform="translate(-68.021191,905.30919)"
       style="font-size:40px;font-style:normal;font-variant:normal;font-weight:normal;font-stretch:normal;text-align:center;line-height:125%;letter-spacing:0px;word-spacing:0px;text-anchor:middle;fill:none;stroke:#000000;stroke-opacity:1;font-family:Arial;-inkscape-font-specification:Arial;fill-opacity:1"
       id="flowRoot3755-7-8-1-2-2-6-1-9-2-8">
      <path
         inkscape:connector-curvature="0"
         d="m 113.42969,107.95419 -5.48828,0 0,-20.683595 c -2.00522,1.875019 -4.3685,3.261736 -7.08985,4.160157 l 0,-4.980469 c 1.43229,-0.468728 2.98828,-1.357399 4.66797,-2.666016 1.67968,-1.308568 2.83202,-2.835259 3.45703,-4.580078 l 4.45313,0 z"
         style="font-weight:bold;writing-mode:lr-tb;stroke:#000000;-inkscape-font-specification:Arial Bold;fill:none;fill-opacity:1;stroke-opacity:1"
         id="path4132-4" />
      <path
         inkscape:connector-curvature="0"
         d="m 130.92969,79.204189 c 2.77342,2.9e-5 4.94139,0.989611 6.5039,2.96875 1.86196,2.343774 2.79295,6.230488 2.79297,11.660156 -2e-5,5.416676 -0.93752,9.309905 -2.8125,11.679685 -1.54949,1.95313 -3.71095,2.92969 -6.48437,2.92969 -2.78647,0 -5.03256,-1.07096 -6.73828,-3.21289 -1.70574,-2.14192 -2.5586,-5.960278 -2.5586,-11.455078 0,-5.390606 0.9375,-9.27081 2.8125,-11.640625 1.54948,-1.953098 3.71093,-2.929659 6.48438,-2.929688 z m 0,4.550781 c -0.66408,2.5e-5 -1.25652,0.211613 -1.77735,0.634766 -0.52084,0.4232 -0.92448,1.181663 -1.21093,2.275391 -0.37762,1.41929 -0.56642,3.808611 -0.56641,7.167968 -1e-5,3.359386 0.16926,5.667326 0.50781,6.923825 0.33854,1.25652 0.76497,2.09311 1.2793,2.50977 0.51431,0.41667 1.1035,0.625 1.76758,0.625 0.66405,0 1.2565,-0.21159 1.77734,-0.63477 0.52082,-0.42317 0.92447,-1.18163 1.21094,-2.27539 0.37759,-1.406239 0.56639,-3.789049 0.5664,-7.148435 -1e-5,-3.359357 -0.16928,-5.667298 -0.50781,-6.923828 -0.33855,-1.256488 -0.76498,-2.096331 -1.27929,-2.519531 -0.51434,-0.423153 -1.10353,-0.634741 -1.76758,-0.634766 z"
         style="font-weight:bold;writing-mode:lr-tb;stroke:#000000;-inkscape-font-specification:Arial Bold;fill:none;fill-opacity:1;stroke-opacity:1"
         id="path4134-9" />
    </g>
    <path
       style="fill:none;stroke:#ff0000;stroke-width:0.35433072;stroke-linecap:butt;stroke-linejoin:miter;stroke-miterlimit:4;stroke-opacity:1;stroke-dasharray:none"
       d="m 17.893701,255.29501 708.661369,0 0,779.52759 -708.661369,0 z"
       id="path4584"
       inkscape:connector-curvature="0" />
    <path
       style="fill:none;stroke:#ff0000;stroke-width:0.35433072;stroke-linecap:butt;stroke-linejoin:miter;stroke-miterlimit:4;stroke-opacity:1;stroke-dasharray:none"
       d="m 17.393701,325.66115 708.661409,0 0,0"
       id="path4586"
       inkscape:connector-curvature="0" />
    <path
       style="fill:none;stroke:#ff0000;stroke-width:0.35433072;stroke-linecap:butt;stroke-linejoin:miter;stroke-miterlimit:4;stroke-opacity:1;stroke-dasharray:none"
       d="m 726.05511,396.5273 -708.661409,0"
       id="path4588"
       inkscape:connector-curvature="0" />
    <path
       style="fill:none;stroke:#ff0000;stroke-width:0.35433072;stroke-linecap:butt;stroke-linejoin:miter;stroke-miterlimit:4;stroke-opacity:1;stroke-dasharray:none"
       d="m 17.393701,467.39344 708.661409,0"
       id="path4590"
       inkscape:connector-curvature="0" />
    <path
       style="fill:none;stroke:#ff0000;stroke-width:0.35433072;stroke-linecap:butt;stroke-linejoin:miter;stroke-miterlimit:4;stroke-opacity:1;stroke-dasharray:none"
       d="m 726.05511,538.25958 -708.661409,0"
       id="path4592"
       inkscape:connector-curvature="0" />
    <path
       style="fill:none;stroke:#ff0000;stroke-width:0.35433072;stroke-linecap:butt;stroke-linejoin:miter;stroke-miterlimit:4;stroke-opacity:1;stroke-dasharray:none"
       d="m 17.393701,609.12572 708.661409,0"
       id="path4594"
       inkscape:connector-curvature="0" />
    <path
       style="fill:none;stroke:#ff0000;stroke-width:0.35433072;stroke-linecap:butt;stroke-linejoin:miter;stroke-miterlimit:4;stroke-opacity:1;stroke-dasharray:none"
       d="m 726.05511,679.99187 -708.661409,0"
       id="path4596"
       inkscape:connector-curvature="0" />
    <path
       style="fill:none;stroke:#ff0000;stroke-width:0.35433072;stroke-linecap:butt;stroke-linejoin:miter;stroke-miterlimit:4;stroke-opacity:1;stroke-dasharray:none"
       d="m 17.393701,750.85801 708.661409,0"
       id="path4598"
       inkscape:connector-curvature="0" />
    <path
       style="fill:none;stroke:#ff0000;stroke-width:0.35433072;stroke-linecap:butt;stroke-linejoin:miter;stroke-miterlimit:4;stroke-opacity:1;stroke-dasharray:none"
       d="m 726.05511,821.72415 -708.661409,0"
       id="path4600"
       inkscape:connector-curvature="0" />
    <path
       style="fill:none;stroke:#ff0000;stroke-width:0.35433072;stroke-linecap:butt;stroke-linejoin:miter;stroke-miterlimit:4;stroke-opacity:1;stroke-dasharray:none"
       d="m 17.393701,892.59029 708.661409,0"
       id="path4602"
       inkscape:connector-curvature="0" />
    <path
       style="fill:none;stroke:#ff0000;stroke-width:0.35433072;stroke-linecap:butt;stroke-linejoin:miter;stroke-miterlimit:4;stroke-opacity:1;stroke-dasharray:none"
       d="m 726.05511,963.45647 -708.661409,0"
       id="path4604"
       inkscape:connector-curvature="0" />
    <path
       style="fill:none;stroke:#ff0000;stroke-width:0.35433072;stroke-linecap:butt;stroke-linejoin:miter;stroke-miterlimit:4;stroke-opacity:1;stroke-dasharray:none"
       d="m 88.259841,254.79501 0,70.86614"
       id="path4606"
       inkscape:connector-curvature="0" />
    <path
       style="fill:none;stroke:#ff0000;stroke-width:0.35433072;stroke-linecap:butt;stroke-linejoin:miter;stroke-miterlimit:4;stroke-opacity:1;stroke-dasharray:none"
       d="m 159.12598,325.66115 0,70.86615"
       id="path4608"
       inkscape:connector-curvature="0" />
    <path
       style="fill:none;stroke:#ff0000;stroke-width:0.35433072;stroke-linecap:butt;stroke-linejoin:miter;stroke-miterlimit:4;stroke-opacity:1;stroke-dasharray:none"
       d="m 229.99212,396.5273 0,70.86614"
       id="path4610"
       inkscape:connector-curvature="0" />
    <path
       style="fill:none;stroke:#ff0000;stroke-width:0.35433072;stroke-linecap:butt;stroke-linejoin:miter;stroke-miterlimit:4;stroke-opacity:1;stroke-dasharray:none"
       d="m 300.85826,467.39344 0,70.86614"
       id="path4612"
       inkscape:connector-curvature="0" />
    <path
       style="fill:none;stroke:#ff0000;stroke-width:0.35433072;stroke-linecap:butt;stroke-linejoin:miter;stroke-miterlimit:4;stroke-opacity:1;stroke-dasharray:none"
       d="m 371.7244,538.25958 0,70.86614"
       id="path4614"
       inkscape:connector-curvature="0" />
    <path
       style="fill:none;stroke:#ff0000;stroke-width:0.35433072;stroke-linecap:butt;stroke-linejoin:miter;stroke-miterlimit:4;stroke-opacity:1;stroke-dasharray:none"
       d="m 442.59055,609.12572 0,70.86615"
       id="path4616"
       inkscape:connector-curvature="0" />
    <path
       style="fill:none;stroke:#ff0000;stroke-width:0.35433072;stroke-linecap:butt;stroke-linejoin:miter;stroke-miterlimit:4;stroke-opacity:1;stroke-dasharray:none"
       d="m 513.45669,679.99187 0,70.86614"
       id="path4618"
       inkscape:connector-curvature="0" />
    <path
       style="fill:none;stroke:#ff0000;stroke-width:0.35433072;stroke-linecap:butt;stroke-linejoin:miter;stroke-miterlimit:4;stroke-opacity:1;stroke-dasharray:none"
       d="m 584.32283,750.85801 0,70.86614"
       id="path4620"
       inkscape:connector-curvature="0" />
    <path
       style="fill:none;stroke:#ff0000;stroke-width:0.35433072;stroke-linecap:butt;stroke-linejoin:miter;stroke-miterlimit:4;stroke-opacity:1;stroke-dasharray:none"
       d="m 655.18897,821.72415 0,70.86614"
       id="path4622"
       inkscape:connector-curvature="0" />
    <path
       style="fill:none;stroke:#000000;stroke-width:1.06299210000000000;stroke-linecap:butt;stroke-linejoin:miter;stroke-miterlimit:4;stroke-opacity:1;stroke-dasharray:none"
       d="m 88.582677,88.58268 0,637.79528"
       id="path4635"
       inkscape:connector-curvature="0"
       transform="translate(0,237.40131)"
       sodipodi:nodetypes="cc" />
    <path
       style="fill:none;stroke:#000000;stroke-width:1.06299210000000000;stroke-linecap:butt;stroke-linejoin:miter;stroke-miterlimit:4;stroke-opacity:1;stroke-dasharray:none"
       d="m 159.44882,396.85013 0,566.92914"
       id="path4635-6"
       inkscape:connector-curvature="0"
       sodipodi:nodetypes="cc" />
    <path
       style="fill:none;stroke:#000000;stroke-width:1.06299210000000000;stroke-linecap:butt;stroke-linejoin:miter;stroke-miterlimit:4;stroke-opacity:1;stroke-dasharray:none"
       d="m 230.31496,467.71627 0,496.063"
       id="path4635-6-3"
       inkscape:connector-curvature="0"
       sodipodi:nodetypes="cc" />
    <path
       style="fill:none;stroke:#000000;stroke-width:1.06299210000000000;stroke-linecap:butt;stroke-linejoin:miter;stroke-miterlimit:4;stroke-opacity:1;stroke-dasharray:none"
       d="m 301.1811,538.58241 0,425.19686"
       id="path4635-6-3-7"
       inkscape:connector-curvature="0"
       sodipodi:nodetypes="cc" />
    <path
       style="fill:none;stroke:#000000;stroke-width:1.06299210000000000;stroke-linecap:butt;stroke-linejoin:miter;stroke-miterlimit:4;stroke-opacity:1;stroke-dasharray:none"
       d="m 372.04724,609.44856 0,354.33071"
       id="path4635-6-3-7-8"
       inkscape:connector-curvature="0"
       sodipodi:nodetypes="cc" />
    <path
       style="fill:none;stroke:#000000;stroke-width:1.06299210000000000;stroke-linecap:butt;stroke-linejoin:miter;stroke-miterlimit:4;stroke-opacity:1;stroke-dasharray:none"
       d="m 442.91339,680.3147 0,283.46457"
       id="path4635-6-3-7-8-8"
       inkscape:connector-curvature="0"
       sodipodi:nodetypes="cc" />
    <path
       style="fill:none;stroke:#000000;stroke-width:1.06299210000000000;stroke-linecap:butt;stroke-linejoin:miter;stroke-miterlimit:4;stroke-opacity:1;stroke-dasharray:none"
       d="m 513.77953,751.18084 0,212.59843"
       id="path4635-6-3-7-8-8-2"
       inkscape:connector-curvature="0"
       sodipodi:nodetypes="cc" />
    <path
       style="fill:none;stroke:#000000;stroke-width:1.06299210000000000;stroke-linecap:butt;stroke-linejoin:miter;stroke-miterlimit:4;stroke-opacity:1;stroke-dasharray:none"
       d="m 584.64567,822.04698 0,141.73229"
       id="path4635-6-3-7-8-8-2-9"
       inkscape:connector-curvature="0"
       sodipodi:nodetypes="cc" />
    <path
       style="fill:none;stroke:#000000;stroke-width:1.06299210000000000;stroke-linecap:butt;stroke-linejoin:miter;stroke-miterlimit:4;stroke-opacity:1;stroke-dasharray:none"
       d="m 655.51181,892.91312 0,70.86615"
       id="path4635-6-3-7-8-8-2-9-1"
       inkscape:connector-curvature="0"
       sodipodi:nodetypes="cc" />
    <flowRoot
       xml:space="preserve"
       id="flowRoot4781"
       style="fill:black;stroke:none;stroke-opacity:1;stroke-width:1px;stroke-linejoin:miter;stroke-linecap:butt;fill-opacity:1;font-family:Sans;font-style:normal;font-weight:normal;font-size:10px;line-height:125%;letter-spacing:0px;word-spacing:0px"><flowRegion
         id="flowRegion4783"><rect
           id="rect4785"
           width="88.571426"
           height="22.857143"
           x="87.14286"
           y="752.10352" /></flowRegion><flowPara
         id="flowPara4787" /></flowRoot>    <g
       transform="translate(-8.4645362,239.16271)"
       style="font-size:40px;font-style:normal;font-variant:normal;font-weight:bold;font-stretch:normal;text-align:center;line-height:125%;letter-spacing:0px;word-spacing:0px;text-anchor:middle;fill:none;fill-opacity:1;stroke:#000000;stroke-opacity:1;font-family:Arial;-inkscape-font-specification:Arial Bold"
       id="flowRoot4789">
      <path
         d="m 93.503906,758.17294 0,-5.03906 20.019534,0 0,5.03906 z m 0,8.67187 0,-5.05859 20.019534,0 0,5.05859 z"
         style="fill:none;stroke:#000000;stroke-opacity:1"
         id="path4798" />
      <path
         d="m 142.03906,774.11044 -5.48828,0 0,-20.68359 c -2.00522,1.87501 -4.36849,3.26173 -7.08984,4.16015 l 0,-4.98047 c 1.43228,-0.46873 2.98827,-1.3574 4.66797,-2.66601 1.67967,-1.30857 2.83202,-2.83526 3.45703,-4.58008 l 4.45312,0 z"
         style="fill:none;stroke:#000000;stroke-opacity:1"
         id="path4800" />
      <path
         d="m 181.55078,774.11044 -5.09766,0 0,-3.04688 c -0.84637,1.1849 -1.84571,2.06706 -2.99804,2.64649 -1.15236,0.57943 -2.31447,0.86914 -3.48633,0.86914 -2.38282,0 -4.42383,-0.96029 -6.12305,-2.88086 -1.69922,-1.92057 -2.54883,-4.5996 -2.54883,-8.03711 0,-3.51561 0.82683,-6.18813 2.48047,-8.01758 1.65364,-1.8294 3.74349,-2.74412 6.26953,-2.74414 2.3177,2e-5 4.32291,0.96356 6.01563,2.89063 l 0,-10.3125 5.48828,0 z m -14.64844,-10.82031 c 0,2.21355 0.30599,3.81511 0.91797,4.80468 0.88541,1.4323 2.12239,2.14845 3.71094,2.14844 1.26301,10e-6 2.33723,-0.5371 3.22266,-1.61133 0.8854,-1.07421 1.3281,-2.67902 1.32812,-4.81445 -2e-5,-2.3828 -0.4297,-4.09829 -1.28906,-5.14648 -0.85939,-1.04816 -1.95965,-1.57225 -3.30078,-1.57227 -1.3021,2e-5 -2.39259,0.51759 -3.27149,1.55273 -0.87891,1.03518 -1.31836,2.5814 -1.31836,4.63868 z"
         style="fill:none;stroke:#000000;stroke-opacity:1"
         id="path4802" />
      <path
         d="m 186.98047,750.55575 0,-5.07812 5.48828,0 0,5.07812 z m 0,23.55469 0,-20.74219 5.48828,0 0,20.74219 z"
         style="fill:none;stroke:#000000;stroke-opacity:1"
         id="path4804" />
      <path
         d="m 195.86719,774.11044 0,-4.27734 7.77343,-8.92579 c 1.27604,-1.45831 2.22005,-2.49347 2.83204,-3.10546 -0.63804,0.0391 -1.47788,0.0651 -2.51954,0.0781 l -7.32421,0.0391 0,-4.55078 17.14843,0 0,3.88672 -7.92968,9.14063 -2.79297,3.02734 c 1.52343,-0.0911 2.46744,-0.13671 2.83203,-0.13672 l 8.49609,0 0,4.82422 z"
         style="fill:none;stroke:#000000;stroke-opacity:1"
         id="path4806" />
      <path
         d="m 222.17578,759.69638 -4.98047,-0.89844 c 0.5599,-2.00519 1.52344,-3.48957 2.89063,-4.45313 1.36718,-0.96352 3.39843,-1.44529 6.09375,-1.44531 2.4479,2e-5 4.27082,0.28974 5.46875,0.86914 1.1979,0.57945 2.04099,1.31513 2.52929,2.20703 0.48827,0.89195 0.73241,2.52932 0.73243,4.91211 l -0.0586,6.40625 c -2e-5,1.82292 0.0879,3.16732 0.26367,4.03321 0.17577,0.86588 0.50454,1.79362 0.98633,2.7832 l -5.42969,0 c -0.14324,-0.36458 -0.31902,-0.90495 -0.52734,-1.62109 -0.0912,-0.32552 -0.15626,-0.54037 -0.19531,-0.64454 -0.93752,0.91146 -1.94012,1.59506 -3.00781,2.05079 -1.06772,0.45572 -2.20704,0.68359 -3.41797,0.68359 -2.13543,0 -3.81837,-0.57943 -5.04883,-1.73828 -1.23047,-1.15885 -1.84571,-2.6237 -1.8457,-4.39453 -1e-5,-1.17187 0.27994,-2.21679 0.83984,-3.13477 0.55989,-0.91796 1.3444,-1.62108 2.35352,-2.10937 1.0091,-0.48827 2.46418,-0.91471 4.36523,-1.2793 2.56509,-0.48176 4.34243,-0.93098 5.33203,-1.34766 l 0,-0.54687 c -1e-5,-1.05467 -0.26043,-1.80663 -0.78125,-2.25586 -0.52085,-0.4492 -1.50392,-0.67381 -2.94922,-0.67383 -0.97657,2e-5 -1.73829,0.19207 -2.28515,0.57617 -0.54689,0.38413 -0.98959,1.05796 -1.32813,2.02149 z m 7.34375,4.45312 c -0.70314,0.23439 -1.81642,0.51433 -3.33984,0.83985 -1.52345,0.32552 -2.51954,0.64454 -2.98828,0.95703 -0.71616,0.50782 -1.07423,1.15235 -1.07422,1.93359 -1e-5,0.76823 0.28645,1.4323 0.85937,1.99219 0.57291,0.5599 1.30208,0.83984 2.1875,0.83984 0.98957,0 1.93358,-0.32552 2.83203,-0.97656 0.66405,-0.49479 1.10025,-1.10026 1.3086,-1.81641 0.14321,-0.46874 0.21483,-1.36067 0.21484,-2.67578 z"
         style="fill:none;stroke:#000000;stroke-opacity:1"
         id="path4808" />
      <path
         d="m 240.33984,750.55575 0,-5.07812 5.48828,0 0,5.07812 z m 0,23.55469 0,-20.74219 5.48828,0 0,20.74219 z"
         style="fill:none;stroke:#000000;stroke-opacity:1"
         id="path4810" />
      <path
         d="m 270.30078,774.11044 -5.48828,0 0,-10.58594 c -2e-5,-2.23957 -0.1172,-3.68814 -0.35156,-4.3457 -0.23439,-0.65754 -0.61525,-1.16861 -1.14258,-1.5332 -0.52736,-0.36457 -1.16212,-0.54686 -1.9043,-0.54688 -0.95053,2e-5 -1.80339,0.26043 -2.55859,0.78125 -0.75522,0.52085 -1.2728,1.21095 -1.55274,2.07031 -0.27995,0.85939 -0.41993,2.44793 -0.41992,4.76563 l 0,9.39453 -5.48828,0 0,-20.74219 5.09766,0 0,3.04688 c 1.80988,-2.34373 4.08853,-3.51561 6.83593,-3.51563 1.21093,2e-5 2.3177,0.21812 3.32032,0.6543 1.00258,0.43622 1.76105,0.99286 2.27539,1.66992 0.5143,0.6771 0.87237,1.44533 1.07422,2.30469 0.2018,0.85939 0.30271,2.08986 0.30273,3.6914 z"
         style="fill:none;stroke:#000000;stroke-opacity:1"
         id="path4812" />
      <path
         d="m 287.89844,767.50888 5.46875,0.91797 c -0.70315,2.00521 -1.81317,3.5319 -3.33008,4.58007 -1.51694,1.04818 -3.41473,1.57227 -5.69336,1.57227 -3.60678,0 -6.27605,-1.17839 -8.00781,-3.53516 -1.36719,-1.88801 -2.05079,-4.27082 -2.05078,-7.14843 -1e-5,-3.43749 0.89843,-6.12955 2.69531,-8.07618 1.79687,-1.94659 4.069,-2.9199 6.8164,-2.91992 3.08593,2e-5 5.52082,1.0189 7.30469,3.05664 1.78384,2.03778 2.6367,5.15952 2.5586,9.36524 l -13.75,0 c 0.039,1.62761 0.48176,2.89388 1.32812,3.79882 0.84635,0.90496 1.90103,1.35743 3.16406,1.35743 0.85937,0 1.58202,-0.23437 2.16797,-0.70313 0.58593,-0.46874 1.02863,-1.22395 1.32813,-2.26562 z m 0.3125,-5.54688 c -0.0391,-1.58853 -0.44924,-2.79621 -1.23047,-3.62305 -0.78126,-0.8268 -1.73178,-1.24021 -2.85156,-1.24023 -1.19793,2e-5 -2.18751,0.43621 -2.96875,1.30859 -0.78126,0.87241 -1.16538,2.05731 -1.15235,3.55469 z"
         style="fill:none;stroke:#000000;stroke-opacity:1"
         id="path4814" />
    </g>
  </g>
</svg>
