<?xml version="1.0" encoding="UTF-8" standalone="no"?>
<!-- Created with Inkscape (http://www.inkscape.org/) -->

<svg
   xmlns:dc="http://purl.org/dc/elements/1.1/"
   xmlns:cc="http://creativecommons.org/ns#"
   xmlns:rdf="http://www.w3.org/1999/02/22-rdf-syntax-ns#"
   xmlns:svg="http://www.w3.org/2000/svg"
   xmlns="http://www.w3.org/2000/svg"
   xmlns:sodipodi="http://sodipodi.sourceforge.net/DTD/sodipodi-0.dtd"
   xmlns:inkscape="http://www.inkscape.org/namespaces/inkscape"
   width="1052.3622"
   height="744.09448"
   id="svg2"
   version="1.1"
   inkscape:version="0.48.5 r10040"
   sodipodi:docname="AdditionTableBoardPart1_LaserCutting.svg">
  <defs
     id="defs4" />
  <sodipodi:namedview
     id="base"
     pagecolor="#ffffff"
     bordercolor="#666666"
     borderopacity="1.0"
     inkscape:pageopacity="0.0"
     inkscape:pageshadow="2"
     inkscape:zoom="0.49497475"
     inkscape:cx="98.965137"
     inkscape:cy="244.50261"
     inkscape:document-units="mm"
     inkscape:current-layer="layer1"
     showgrid="true"
     inkscape:window-width="1304"
     inkscape:window-height="746"
     inkscape:window-x="54"
     inkscape:window-y="-8"
     inkscape:window-maximized="1"
     units="mm"
     inkscape:snap-global="true"
     inkscape:snap-grids="true"
     inkscape:snap-bbox="true">
    <inkscape:grid
       type="xygrid"
       id="grid3844"
       empspacing="5"
       visible="true"
       enabled="true"
       snapvisiblegridlinesonly="true"
       units="mm"
       spacingx="1mm"
       spacingy="1mm"
       dotted="true" />
  </sodipodi:namedview>
  <metadata
     id="metadata7">
    <rdf:RDF>
      <cc:Work
         rdf:about="">
        <dc:format>image/svg+xml</dc:format>
        <dc:type
           rdf:resource="http://purl.org/dc/dcmitype/StillImage" />
        <dc:title />
      </cc:Work>
    </rdf:RDF>
  </metadata>
  <g
     inkscape:label="Layer 1"
     inkscape:groupmode="layer"
     id="layer1"
     transform="translate(0,-308.26743)">
    <g
       transform="translate(216.17179,268.79461)"
       style="font-size:40px;font-style:normal;font-variant:normal;font-weight:normal;font-stretch:normal;text-align:center;line-height:125%;letter-spacing:0px;word-spacing:0px;text-anchor:middle;fill:#00b400;fill-opacity:1;stroke:#00b400;stroke-opacity:1;font-family:Arial;-inkscape-font-specification:Arial"
       id="flowRoot3755-7-8">
      <path
         inkscape:connector-curvature="0"
         d="m 109.30859,100.35653 5.3125,-0.644528 c 0.16927,1.354178 0.625,2.389328 1.36719,3.105468 0.74218,0.71615 1.64062,1.07422 2.69531,1.07422 1.1328,0 2.08658,-0.42968 2.86133,-1.28906 0.77473,-0.85937 1.1621,-2.01823 1.16211,-3.476566 -1e-5,-1.380198 -0.37111,-2.473947 -1.11328,-3.28125 -0.7422,-0.807279 -1.64715,-1.210924 -2.71484,-1.210937 -0.70314,1.3e-5 -1.54298,0.136732 -2.51953,0.410156 l 0.60546,-4.472656 c 1.48437,0.03908 2.61718,-0.283186 3.39844,-0.966797 0.78124,-0.683575 1.17186,-1.591777 1.17188,-2.72461 -2e-5,-0.963519 -0.28648,-1.731748 -0.85938,-2.304687 -0.57293,-0.572893 -1.33465,-0.859351 -2.28515,-0.859375 -0.93751,2.4e-5 -1.7383,0.325545 -2.40235,0.976562 -0.66407,0.651065 -1.06771,1.601584 -1.21094,2.851563 l -5.05859,-0.859375 c 0.35156,-1.731748 0.88216,-3.11521 1.5918,-4.150391 0.70963,-1.03513 1.69921,-1.848931 2.96875,-2.441406 1.26952,-0.59242 2.69205,-0.888643 4.26758,-0.888672 2.69529,2.9e-5 4.85675,0.859403 6.48437,2.578125 1.34113,1.406275 2.0117,2.994815 2.01172,4.765625 -2e-5,2.51304 -1.37372,4.518246 -4.12109,6.015625 1.6406,0.351578 2.95245,1.139337 3.93554,2.363281 0.98305,1.22397 1.47459,2.701834 1.47461,4.433594 -2e-5,2.513031 -0.91799,4.654951 -2.7539,6.425781 -1.83596,1.77083 -4.12111,2.65625 -6.85547,2.65625 -2.59116,0 -4.73959,-0.74544 -6.44532,-2.23633 -1.70573,-1.49088 -2.69531,-3.44075 -2.96875,-5.84961 z"
         style="font-weight:bold;writing-mode:lr-tb;fill:#00b400;fill-opacity:1;stroke:#00b400;stroke-opacity:1;-inkscape-font-specification:Arial Bold"
         id="path4155" />
    </g>
    <g
       transform="translate(287.60187,269.28289)"
       style="font-size:40px;font-style:normal;font-variant:normal;font-weight:normal;font-stretch:normal;text-align:center;line-height:125%;letter-spacing:0px;word-spacing:0px;text-anchor:middle;fill:#00b400;fill-opacity:1;stroke:#00b400;stroke-opacity:1;font-family:Arial;-inkscape-font-specification:Arial"
       id="flowRoot3755-7-8-1">
      <path
         inkscape:connector-curvature="0"
         d="m 120.26563,107.95419 0,-5.76172 -11.71875,0 0,-4.804687 12.42187,-18.183594 4.60938,0 0,18.164063 3.55468,0 0,4.824218 -3.55468,0 0,5.76172 z m 0,-10.585938 0,-9.785157 -6.58204,9.785157 z"
         style="font-weight:bold;writing-mode:lr-tb;fill:#00b400;fill-opacity:1;stroke:#00b400;stroke-opacity:1;-inkscape-font-specification:Arial Bold"
         id="path4152" />
    </g>
    <g
       transform="translate(358.68043,268.79461)"
       style="font-size:40px;font-style:normal;font-variant:normal;font-weight:normal;font-stretch:normal;text-align:center;line-height:125%;letter-spacing:0px;word-spacing:0px;text-anchor:middle;fill:#00b400;fill-opacity:1;stroke:#00b400;stroke-opacity:1;font-family:Arial;-inkscape-font-specification:Arial"
       id="flowRoot3755-7-8-1-2">
      <path
         inkscape:connector-curvature="0"
         d="m 109.58203,100.59091 5.46875,-0.56641 c 0.15624,1.23699 0.61848,2.2168 1.38672,2.93945 0.76822,0.72267 1.65364,1.08399 2.65625,1.08399 1.14582,0 2.11587,-0.46549 2.91016,-1.39649 0.79425,-0.93098 1.19139,-2.33397 1.1914,-4.20898 -1e-5,-1.757801 -0.39389,-3.076159 -1.18164,-3.955078 -0.78777,-0.878892 -1.81316,-1.318344 -3.07617,-1.318359 -1.57553,1.5e-5 -2.98829,0.696628 -4.23828,2.089844 l -4.45313,-0.644532 2.8125,-14.902343 14.51172,0 0,5.136718 -10.35156,0 -0.85937,4.863282 c 1.22394,-0.611961 2.47394,-0.91795 3.75,-0.917969 2.43488,1.9e-5 4.49868,0.885435 6.1914,2.65625 1.69269,1.770848 2.53904,4.069023 2.53906,6.894531 -2e-5,2.356776 -0.68361,4.459636 -2.05078,6.308596 -1.86199,2.52604 -4.44663,3.78906 -7.7539,3.78906 -2.64324,0 -4.79819,-0.70963 -6.46485,-2.12891 -1.66667,-1.41926 -2.66276,-3.32681 -2.98828,-5.72265 z"
         style="font-weight:bold;writing-mode:lr-tb;fill:#00b400;fill-opacity:1;stroke:#00b400;stroke-opacity:1;-inkscape-font-specification:Arial Bold"
         id="path4149" />
    </g>
    <g
       transform="translate(430.27652,268.79461)"
       style="font-size:40px;font-style:normal;font-variant:normal;font-weight:normal;font-stretch:normal;text-align:center;line-height:125%;letter-spacing:0px;word-spacing:0px;text-anchor:middle;fill:#00b400;fill-opacity:1;stroke:#00b400;stroke-opacity:1;font-family:Arial;-inkscape-font-specification:Arial"
       id="flowRoot3755-7-8-1-2-2">
      <path
         inkscape:connector-curvature="0"
         d="m 128.09766,86.333095 -5.3125,0.585938 c -0.13023,-1.093728 -0.46877,-1.901019 -1.01563,-2.421875 -0.54689,-0.52081 -1.25652,-0.781226 -2.1289,-0.78125 -1.15887,2.4e-5 -2.13869,0.520857 -2.93946,1.5625 -0.80079,1.041688 -1.30534,3.209655 -1.51367,6.503906 1.36718,-1.614565 3.0664,-2.421856 5.09766,-2.421875 2.29165,1.9e-5 4.25454,0.872414 5.88867,2.617188 1.63409,1.744805 2.45115,3.997407 2.45117,6.757812 -2e-5,2.929691 -0.85939,5.279951 -2.57812,7.050781 -1.71877,1.77083 -3.9258,2.65625 -6.6211,2.65625 -2.89063,0 -5.26693,-1.12305 -7.1289,-3.36914 -1.86199,-2.24609 -2.79298,-5.927726 -2.79297,-11.044922 -1e-5,-5.247377 0.97005,-9.029925 2.91015,-11.347656 1.9401,-2.317681 4.45963,-3.476534 7.5586,-3.476563 2.17446,2.9e-5 3.97459,0.608752 5.40039,1.826172 1.42576,1.217474 2.33396,2.98505 2.72461,5.302734 z m -12.44141,11.972657 c -1e-5,1.783858 0.41015,3.160818 1.23047,4.130858 0.8203,0.97006 1.7578,1.45508 2.8125,1.45508 1.01561,0 1.86196,-0.39713 2.53906,-1.19141 0.67707,-0.79426 1.01561,-2.09634 1.01563,-3.906247 -2e-5,-1.861968 -0.3646,-3.225899 -1.09375,-4.091797 -0.72918,-0.865871 -1.64064,-1.298814 -2.73438,-1.298828 -1.0547,1.4e-5 -1.94662,0.413425 -2.67578,1.240234 -0.72917,0.826836 -1.09376,2.047537 -1.09375,3.66211 z"
         style="font-weight:bold;writing-mode:lr-tb;fill:#00b400;fill-opacity:1;stroke:#00b400;stroke-opacity:1;-inkscape-font-specification:Arial Bold"
         id="path4146" />
    </g>
    <g
       transform="translate(501.90193,269.28289)"
       style="font-size:40px;font-style:normal;font-variant:normal;font-weight:normal;font-stretch:normal;text-align:center;line-height:125%;letter-spacing:0px;word-spacing:0px;text-anchor:middle;fill:#00b400;fill-opacity:1;stroke:#00b400;stroke-opacity:1;font-family:Arial;-inkscape-font-specification:Arial"
       id="flowRoot3755-7-8-1-2-2-6">
      <path
         inkscape:connector-curvature="0"
         d="m 109.50391,84.809658 0,-5.097656 18.76953,0 0,3.984375 c -1.5495,1.52346 -3.12502,3.710958 -4.72656,6.5625 -1.60158,2.851577 -2.82228,5.882173 -3.66211,9.091796 -0.83986,3.209637 -1.25327,6.077477 -1.24024,8.603517 l -5.29297,0 c 0.0911,-3.95833 0.9082,-7.994785 2.45117,-12.109376 1.54296,-4.114567 3.60351,-7.792949 6.18165,-11.035156 z"
         style="font-weight:bold;writing-mode:lr-tb;fill:#00b400;fill-opacity:1;stroke:#00b400;stroke-opacity:1;-inkscape-font-specification:Arial Bold"
         id="path4143" />
    </g>
    <g
       transform="translate(573.40039,268.77508)"
       style="font-size:40px;font-style:normal;font-variant:normal;font-weight:normal;font-stretch:normal;text-align:center;line-height:125%;letter-spacing:0px;word-spacing:0px;text-anchor:middle;fill:#00b400;fill-opacity:1;stroke:#00b400;stroke-opacity:1;font-family:Arial;-inkscape-font-specification:Arial"
       id="flowRoot3755-7-8-1-2-2-6-1">
      <path
         inkscape:connector-curvature="0"
         d="m 114.21094,92.50497 c -1.41928,-0.598942 -2.45118,-1.422509 -3.09571,-2.470703 -0.64453,-1.048158 -0.96679,-2.197245 -0.96679,-3.447265 0,-2.135394 0.74544,-3.899715 2.23633,-5.292969 1.49087,-1.393201 3.61001,-2.089815 6.35742,-2.089844 2.72134,2.9e-5 4.83397,0.696643 6.33789,2.089844 1.50389,1.393254 2.25584,3.157575 2.25586,5.292969 -2e-5,1.328145 -0.34507,2.509784 -1.03516,3.544921 -0.69012,1.035173 -1.66017,1.826188 -2.91015,2.373047 1.58852,0.638036 2.7962,1.569025 3.62304,2.792969 0.8268,1.22397 1.24022,2.636729 1.24024,4.238281 -2e-5,2.64324 -0.84312,4.79167 -2.5293,6.44531 -1.68621,1.65365 -3.92905,2.48047 -6.72852,2.48047 -2.60417,0 -4.77214,-0.68359 -6.5039,-2.05078 -2.04428,-1.61458 -3.06641,-3.82812 -3.06641,-6.640625 0,-1.549469 0.38411,-2.971994 1.15235,-4.267578 0.76822,-1.295559 1.97916,-2.294907 3.63281,-2.998047 z m 1.13281,-5.527343 c -1e-5,1.093769 0.30924,1.946633 0.92773,2.558593 0.61848,0.611997 1.44205,0.917987 2.47071,0.917969 1.04165,1.8e-5 1.87498,-0.309227 2.5,-0.927734 0.62498,-0.618471 0.93748,-1.47459 0.9375,-2.56836 -2e-5,-1.028623 -0.30926,-1.85219 -0.92774,-2.470703 -0.6185,-0.618465 -1.43556,-0.92771 -2.45117,-0.927734 -1.0547,2.4e-5 -1.89454,0.312524 -2.51953,0.9375 -0.62501,0.625023 -0.93751,1.451845 -0.9375,2.480469 z m -0.50781,12.265625 c -10e-6,1.510428 0.38736,2.688808 1.16211,3.535158 0.77473,0.84636 1.74152,1.26953 2.90039,1.26953 1.1328,0 2.0703,-0.4069 2.8125,-1.2207 0.74217,-0.8138 1.11326,-1.98893 1.11328,-3.525395 -2e-5,-1.341136 -0.37762,-2.418608 -1.13281,-3.232422 -0.75523,-0.813789 -1.71226,-1.22069 -2.8711,-1.220703 -1.34115,1.3e-5 -2.3405,0.462253 -2.99804,1.386719 -0.65756,0.92449 -0.98634,1.927093 -0.98633,3.007813 z"
         style="font-weight:bold;writing-mode:lr-tb;fill:#00b400;fill-opacity:1;stroke:#00b400;stroke-opacity:1;-inkscape-font-specification:Arial Bold"
         id="path4140" />
    </g>
    <g
       transform="translate(645.0551,268.77508)"
       style="font-size:40px;font-style:normal;font-variant:normal;font-weight:normal;font-stretch:normal;text-align:center;line-height:125%;letter-spacing:0px;word-spacing:0px;text-anchor:middle;fill:#00b400;fill-opacity:1;stroke:#00b400;stroke-opacity:1;font-family:Arial;-inkscape-font-specification:Arial"
       id="flowRoot3755-7-8-1-2-2-6-1-9">
      <path
         inkscape:connector-curvature="0"
         d="m 109.62109,101.3331 5.3125,-0.58594 c 0.1302,1.08073 0.46875,1.88151 1.01563,2.40234 0.54687,0.52084 1.26952,0.78126 2.16797,0.78125 1.1328,1e-5 2.09634,-0.52083 2.89062,-1.5625 0.79426,-1.04166 1.30207,-3.203115 1.52344,-6.484373 -1.38022,1.601573 -3.10548,2.402353 -5.17578,2.402343 -2.25261,1e-5 -4.19597,-0.86913 -5.83008,-2.607422 -1.63412,-1.738267 -2.45117,-4.000634 -2.45117,-6.787109 0,-2.903624 0.86263,-5.244116 2.58789,-7.021484 1.72525,-1.777316 3.92252,-2.665987 6.5918,-2.666016 2.90363,2.9e-5 5.28644,1.123075 7.14843,3.369141 1.86196,2.246117 2.79295,5.940774 2.79297,11.083984 -2e-5,5.234384 -0.97007,9.010426 -2.91015,11.328126 -1.94012,2.31771 -4.46616,3.47656 -7.57813,3.47656 -2.23959,0 -4.04948,-0.5957 -5.42969,-1.78711 -1.38021,-1.1914 -2.26562,-2.972 -2.65625,-5.34179 z m 12.42188,-11.992192 c -2e-5,-1.770813 -0.40692,-3.14451 -1.2207,-4.121094 C 120.00845,84.243275 119.0677,83.754995 118,83.75497 c -1.01563,2.5e-5 -1.85873,0.400415 -2.5293,1.201172 -0.67058,0.800804 -1.00586,2.112651 -1.00586,3.935547 0,1.848976 0.36458,3.206396 1.09375,4.072266 0.72916,0.865899 1.64062,1.298842 2.73438,1.298828 1.05467,1.4e-5 1.94335,-0.416653 2.66601,-1.25 0.72265,-0.833318 1.08397,-2.057275 1.08399,-3.671875 z"
         style="font-weight:bold;writing-mode:lr-tb;fill:#00b400;fill-opacity:1;stroke:#00b400;stroke-opacity:1;-inkscape-font-specification:Arial Bold"
         id="path4137" />
    </g>
    <g
       transform="translate(711.56998,268.79461)"
       style="font-size:40px;font-style:normal;font-variant:normal;font-weight:normal;font-stretch:normal;text-align:center;line-height:125%;letter-spacing:0px;word-spacing:0px;text-anchor:middle;fill:#ff0000;fill-opacity:1;stroke:#ff0000;stroke-opacity:1;font-family:Arial;-inkscape-font-specification:Arial"
       id="flowRoot3755-7-8-1-2-2-6-1-9-2">
      <path
         inkscape:connector-curvature="0"
         d="m 113.42969,107.95419 -5.48828,0 0,-20.683595 c -2.00522,1.875019 -4.3685,3.261736 -7.08985,4.160157 l 0,-4.980469 c 1.43229,-0.468728 2.98828,-1.357399 4.66797,-2.666016 1.67968,-1.308568 2.83202,-2.835259 3.45703,-4.580078 l 4.45313,0 z"
         style="font-weight:bold;writing-mode:lr-tb;fill:#ff0000;fill-opacity:1;stroke:#ff0000;stroke-opacity:1;-inkscape-font-specification:Arial Bold"
         id="path4132" />
      <path
         inkscape:connector-curvature="0"
         d="m 130.92969,79.204189 c 2.77342,2.9e-5 4.94139,0.989611 6.5039,2.96875 1.86196,2.343774 2.79295,6.230488 2.79297,11.660156 -2e-5,5.416676 -0.93752,9.309905 -2.8125,11.679685 -1.54949,1.95313 -3.71095,2.92969 -6.48437,2.92969 -2.78647,0 -5.03256,-1.07096 -6.73828,-3.21289 -1.70574,-2.14192 -2.5586,-5.960278 -2.5586,-11.455078 0,-5.390606 0.9375,-9.27081 2.8125,-11.640625 1.54948,-1.953098 3.71093,-2.929659 6.48438,-2.929688 z m 0,4.550781 c -0.66408,2.5e-5 -1.25652,0.211613 -1.77735,0.634766 -0.52084,0.4232 -0.92448,1.181663 -1.21093,2.275391 -0.37762,1.41929 -0.56642,3.808611 -0.56641,7.167968 -1e-5,3.359386 0.16926,5.667326 0.50781,6.923825 0.33854,1.25652 0.76497,2.09311 1.2793,2.50977 0.51431,0.41667 1.1035,0.625 1.76758,0.625 0.66405,0 1.2565,-0.21159 1.77734,-0.63477 0.52082,-0.42317 0.92447,-1.18163 1.21094,-2.27539 0.37759,-1.406239 0.56639,-3.789049 0.5664,-7.148435 -1e-5,-3.359357 -0.16928,-5.667298 -0.50781,-6.923828 -0.33855,-1.256488 -0.76498,-2.096331 -1.27929,-2.519531 -0.51434,-0.423153 -1.10353,-0.634741 -1.76758,-0.634766 z"
         style="font-weight:bold;writing-mode:lr-tb;fill:#ff0000;fill-opacity:1;stroke:#ff0000;stroke-opacity:1;-inkscape-font-specification:Arial Bold"
         id="path4134" />
    </g>
    <path
       id="path4161-8"
       style="font-size:40px;font-style:normal;font-variant:normal;font-weight:bold;font-stretch:normal;text-align:center;line-height:125%;letter-spacing:0px;word-spacing:0px;writing-mode:lr-tb;text-anchor:middle;fill:#00b400;fill-opacity:1;stroke:#00b400;stroke-opacity:1;font-family:Arial;-inkscape-font-specification:Arial Bold"
       d="m 198.38189,377.23708 -5.48829,0 0,-20.6836 c -2.00521,1.87502 -4.36849,3.26174 -7.08984,4.16016 l 0,-4.98047 c 1.43229,-0.46873 2.98828,-1.3574 4.66797,-2.66601 1.67968,-1.30857 2.83202,-2.83526 3.45703,-4.58008 l 4.45313,0 z"
       inkscape:connector-curvature="0" />
    <g
       transform="translate(145.12254,269.28289)"
       style="font-size:40px;font-style:normal;font-variant:normal;font-weight:normal;font-stretch:normal;text-align:center;line-height:125%;letter-spacing:0px;word-spacing:0px;text-anchor:middle;fill:#00b400;fill-opacity:1;stroke:#00b400;stroke-opacity:1;font-family:Arial;-inkscape-font-specification:Arial"
       id="flowRoot3755-7-7">
      <path
         inkscape:connector-curvature="0"
         d="m 128.03906,102.85653 0,5.09766 -19.23828,0 c 0.20833,-1.92708 0.83333,-3.75325 1.875,-5.47852 1.04166,-1.72525 3.09895,-4.013659 6.17188,-6.865231 2.47394,-2.304673 3.99087,-3.867171 4.55078,-4.6875 0.75519,-1.132794 1.1328,-2.252585 1.13281,-3.359375 -1e-5,-1.223937 -0.32879,-2.164691 -0.98633,-2.822266 -0.65756,-0.657528 -1.56577,-0.986303 -2.72461,-0.986328 -1.14584,2.5e-5 -2.0573,0.345076 -2.73437,1.035157 -0.67709,0.690126 -1.06772,1.835958 -1.17188,3.4375 l -5.46875,-0.546875 c 0.32552,-3.02081 1.34766,-5.188777 3.06641,-6.503907 1.71874,-1.315076 3.86718,-1.972627 6.44531,-1.972656 2.82551,2.9e-5 5.04556,0.761747 6.66016,2.285156 1.61456,1.523463 2.42185,3.417992 2.42187,5.683594 -2e-5,1.289082 -0.23114,2.516294 -0.69336,3.681641 -0.46226,1.16538 -1.19468,2.386082 -2.19726,3.662109 -0.66408,0.846367 -1.862,2.063814 -3.59375,3.652344 -1.73179,1.58855 -2.82879,2.643237 -3.29102,3.164067 -0.46225,0.52083 -0.8366,1.02865 -1.12304,1.52343 z"
         style="font-weight:bold;writing-mode:lr-tb;fill:#00b400;fill-opacity:1;stroke:#00b400;stroke-opacity:1;-inkscape-font-specification:Arial Bold"
         id="path4158-7" />
    </g>
    <flowRoot
       xml:space="preserve"
       id="flowRoot4781"
       style="font-size:10px;font-style:normal;font-weight:normal;line-height:125%;letter-spacing:0px;word-spacing:0px;fill:#000000;fill-opacity:1;stroke:none;font-family:Sans;stroke-width:2.77086614;stroke-miterlimit:4;stroke-dasharray:none"><flowRegion
         id="flowRegion4783"><rect
           id="rect4785"
           width="88.571426"
           height="22.857143"
           x="87.14286"
           y="752.10352"
           style="stroke-width:2.77086614;stroke-miterlimit:4;stroke-dasharray:none" /></flowRegion><flowPara
         id="flowPara4787" /></flowRoot>    <path
       style="fill:none;stroke:#000000;stroke-width:2.77086614;stroke-linecap:butt;stroke-linejoin:miter;stroke-opacity:1;stroke-miterlimit:4;stroke-dasharray:none"
       d="m 158.94882,325.48396 708.66142,0 0,708.66144 -708.66142,0 z"
       id="path3066"
       inkscape:connector-curvature="0" />
    <path
       style="fill:none;stroke:#000000;stroke-width:2.77086614;stroke-linecap:butt;stroke-linejoin:miter;stroke-opacity:1;stroke-miterlimit:4;stroke-dasharray:none"
       d="m 158.94882,396.3501 708.66142,0 0,0"
       id="path3068"
       inkscape:connector-curvature="0" />
    <path
       style="fill:none;stroke:#000000;stroke-width:2.77086614;stroke-linecap:butt;stroke-linejoin:miter;stroke-opacity:1;stroke-miterlimit:4;stroke-dasharray:none"
       d="m 158.94882,467.21625 708.66142,0"
       id="path3070"
       inkscape:connector-curvature="0" />
    <path
       style="fill:none;stroke:#000000;stroke-width:2.77086614;stroke-linecap:butt;stroke-linejoin:miter;stroke-opacity:1;stroke-miterlimit:4;stroke-dasharray:none"
       d="m 867.61024,538.08239 -708.66142,0"
       id="path3072"
       inkscape:connector-curvature="0" />
    <path
       style="fill:none;stroke:#000000;stroke-width:2.77086614;stroke-linecap:butt;stroke-linejoin:miter;stroke-opacity:1;stroke-miterlimit:4;stroke-dasharray:none"
       d="m 158.94883,608.94853 708.66141,0"
       id="path3074"
       inkscape:connector-curvature="0" />
    <path
       style="fill:none;stroke:#000000;stroke-width:2.77086614;stroke-linecap:butt;stroke-linejoin:miter;stroke-opacity:1;stroke-miterlimit:4;stroke-dasharray:none"
       d="m 867.61024,679.81467 -708.66142,0"
       id="path3076"
       inkscape:connector-curvature="0" />
    <path
       style="fill:none;stroke:#000000;stroke-width:2.77086614;stroke-linecap:butt;stroke-linejoin:miter;stroke-opacity:1;stroke-miterlimit:4;stroke-dasharray:none"
       d="m 158.94882,750.68081 708.66142,0"
       id="path3078"
       inkscape:connector-curvature="0" />
    <path
       style="fill:none;stroke:#000000;stroke-width:2.77086614;stroke-linecap:butt;stroke-linejoin:miter;stroke-opacity:1;stroke-miterlimit:4;stroke-dasharray:none"
       d="m 867.61024,821.54696 -708.66142,0"
       id="path3080"
       inkscape:connector-curvature="0" />
    <path
       style="fill:none;stroke:#000000;stroke-width:2.77086614;stroke-linecap:butt;stroke-linejoin:miter;stroke-opacity:1;stroke-miterlimit:4;stroke-dasharray:none"
       d="m 158.94882,892.4131 708.66142,0"
       id="path3082"
       inkscape:connector-curvature="0" />
    <path
       style="fill:none;stroke:#000000;stroke-width:2.77086614;stroke-linecap:butt;stroke-linejoin:miter;stroke-opacity:1;stroke-miterlimit:4;stroke-dasharray:none"
       d="m 867.61024,963.27924 -708.66142,0"
       id="path3084"
       inkscape:connector-curvature="0" />
    <path
       style="fill:none;stroke:#000000;stroke-width:2.77086614;stroke-linecap:butt;stroke-linejoin:miter;stroke-opacity:1;stroke-miterlimit:4;stroke-dasharray:none"
       d="m 229.81496,396.3501 0,637.7953 0,0"
       id="path3086"
       inkscape:connector-curvature="0"
       sodipodi:nodetypes="ccc" />
    <path
       style="fill:none;stroke:#000000;stroke-width:2.77086614;stroke-linecap:butt;stroke-linejoin:miter;stroke-opacity:1;stroke-miterlimit:4;stroke-dasharray:none"
       d="m 300.68111,396.3501 0,637.7953"
       id="path3088"
       inkscape:connector-curvature="0"
       sodipodi:nodetypes="cc" />
    <path
       style="fill:none;stroke:#000000;stroke-width:2.77086614;stroke-linecap:butt;stroke-linejoin:miter;stroke-opacity:1;stroke-miterlimit:4;stroke-dasharray:none"
       d="m 371.54725,396.3501 0,637.7953"
       id="path3090"
       inkscape:connector-curvature="0"
       sodipodi:nodetypes="cc" />
    <path
       style="fill:none;stroke:#000000;stroke-width:2.77086614;stroke-linecap:butt;stroke-linejoin:miter;stroke-opacity:1;stroke-miterlimit:4;stroke-dasharray:none"
       d="m 442.41339,396.3501 0,637.7953 0,0"
       id="path3092"
       inkscape:connector-curvature="0" />
    <path
       style="fill:none;stroke:#000000;stroke-width:2.77086614;stroke-linecap:butt;stroke-linejoin:miter;stroke-opacity:1;stroke-miterlimit:4;stroke-dasharray:none"
       d="m 513.27953,396.3501 0,637.7953 0,0"
       id="path3094"
       inkscape:connector-curvature="0" />
    <path
       style="fill:none;stroke:#000000;stroke-width:2.77086614;stroke-linecap:butt;stroke-linejoin:miter;stroke-opacity:1;stroke-miterlimit:4;stroke-dasharray:none"
       d="m 584.14568,396.3501 0,637.7953"
       id="path3096"
       inkscape:connector-curvature="0" />
    <path
       style="fill:none;stroke:#000000;stroke-width:2.77086614;stroke-linecap:butt;stroke-linejoin:miter;stroke-opacity:1;stroke-miterlimit:4;stroke-dasharray:none"
       d="m 655.01182,396.3501 0,637.7953"
       id="path3098"
       inkscape:connector-curvature="0" />
    <path
       style="fill:none;stroke:#000000;stroke-width:2.77086614;stroke-linecap:butt;stroke-linejoin:miter;stroke-opacity:1;stroke-miterlimit:4;stroke-dasharray:none"
       d="m 725.87796,396.3501 0,637.7953"
       id="path3100"
       inkscape:connector-curvature="0" />
    <path
       style="fill:none;stroke:#000000;stroke-width:2.77086614;stroke-linecap:butt;stroke-linejoin:miter;stroke-opacity:1;stroke-miterlimit:4;stroke-dasharray:none"
       d="m 796.7441,396.3501 0,637.7953"
       id="path3102"
       inkscape:connector-curvature="0" />
  </g>
</svg>
